<?xml version="1.0" encoding="UTF-8"?>
<svg version="1.1" xmlns="http://www.w3.org/2000/svg" width="923" height="286">
<path d="M0 0 C304.59 0 609.18 0 923 0 C923 94.38 923 188.76 923 286 C618.41 286 313.82 286 0 286 C0 191.62 0 97.24 0 0 Z " fill="#FEFEFE" transform="translate(0,0)"/>
<path d="M0 0 C22.50521384 -0.25442688 22.50521384 -0.25442688 30.36328125 3.08203125 C31.85619216 3.38954987 33.35720161 3.65985103 34.86328125 3.89453125 C42.11067787 5.26360467 49.47495255 7.74407285 55.8125 11.5546875 C58.28988802 13.03808523 60.80254943 14.09656312 63.46289062 15.20263672 C67.03719115 16.85662316 70.30266999 19.02289885 73.61328125 21.14453125 C74.3196875 21.59119141 75.02609375 22.03785156 75.75390625 22.49804688 C78.64524526 24.32977585 81.51521342 26.18331937 84.36328125 28.08203125 C84.36328125 28.74203125 84.36328125 29.40203125 84.36328125 30.08203125 C84.95496094 30.35789062 85.54664063 30.63375 86.15625 30.91796875 C101.99672815 39.27276962 113.33233881 59.62030382 120.53613281 75.28955078 C121.27735589 76.89582582 122.04887134 78.48804087 122.82421875 80.078125 C130.24976721 95.58177011 132.71673155 111.01273116 132.61328125 128.08203125 C132.62101562 129.35820312 132.62875 130.634375 132.63671875 131.94921875 C132.59180961 153.90978647 132.59180961 153.90978647 126.36328125 161.08203125 C123.36328125 163.08203125 123.36328125 163.08203125 120.36328125 162.95703125 C117.36328125 162.08203125 117.36328125 162.08203125 115.66015625 160.53125 C113.80283513 157.02359836 114.2484238 153.84365036 114.61328125 150.01953125 C114.66613281 149.29958984 114.71898437 148.57964844 114.7734375 147.83789062 C115.02052822 144.74351031 115.37834617 142.03683649 116.36328125 139.08203125 C116.45642576 137.4173806 116.49397333 135.74928444 116.49609375 134.08203125 C116.49802734 132.62796875 116.49802734 132.62796875 116.5 131.14453125 C116.49613281 130.13390625 116.49226562 129.12328125 116.48828125 128.08203125 C116.49214844 127.07140625 116.49601563 126.06078125 116.5 125.01953125 C116.49871094 124.05015625 116.49742187 123.08078125 116.49609375 122.08203125 C116.49440186 120.75171875 116.49440186 120.75171875 116.49267578 119.39453125 C116.45590685 116.9220184 116.45590685 116.9220184 115.36328125 114.08203125 C115.2360148 112.45867702 115.13522494 110.83317545 115.05078125 109.20703125 C113.26750072 89.19757477 101.80437223 68.53482404 86.4921875 55.69921875 C79.00368326 50.0107036 71.61732784 47.86348407 62.36328125 47.08203125 C62.36328125 46.42203125 62.36328125 45.76203125 62.36328125 45.08203125 C58.07328125 45.08203125 53.78328125 45.08203125 49.36328125 45.08203125 C49.36328125 45.74203125 49.36328125 46.40203125 49.36328125 47.08203125 C48.12578125 47.12328125 46.88828125 47.16453125 45.61328125 47.20703125 C28.96127369 49.14148739 17.52069538 63.77504678 6.42578125 75.01953125 C4.39875177 77.07322799 2.36835341 79.12351042 0.3359375 81.171875 C-0.54827881 82.06769287 -1.43249512 82.96351074 -2.34350586 83.88647461 C-5.11406251 86.53904737 -6.76812798 87.99155304 -10.63671875 88.39453125 C-13.63671875 88.08203125 -13.63671875 88.08203125 -15.51171875 86.89453125 C-16.97762451 84.5327942 -16.71721703 82.81450049 -16.63671875 80.08203125 C-22.32951067 84.92915135 -27.69588548 90.01420947 -32.94921875 95.33203125 C-33.65111328 96.0384375 -34.35300781 96.74484375 -35.07617188 97.47265625 C-36.37007696 98.7751956 -37.6629419 100.07876977 -38.9543457 101.38378906 C-40.51047479 102.95459648 -42.07189402 104.51989163 -43.63671875 106.08203125 C-42.15171875 107.07203125 -42.15171875 107.07203125 -40.63671875 108.08203125 C-40.63671875 108.74203125 -40.63671875 109.40203125 -40.63671875 110.08203125 C-39.97671875 110.08203125 -39.31671875 110.08203125 -38.63671875 110.08203125 C-38.63671875 110.74203125 -38.63671875 111.40203125 -38.63671875 112.08203125 C-38.07138428 112.31704346 -37.5060498 112.55205566 -36.92358398 112.79418945 C-34.09742703 114.38573188 -32.27032133 116.32624334 -30.046875 118.6875 C-29.17998047 119.58791016 -28.31308594 120.48832031 -27.41992188 121.41601562 C-25.60211157 123.32256326 -23.79221984 125.23669159 -21.99023438 127.15820312 C-21.12205078 128.05474609 -20.25386719 128.95128906 -19.359375 129.875 C-18.57312744 130.70539795 -17.78687988 131.5357959 -16.97680664 132.39135742 C-14.80389789 134.32784511 -14.80389789 134.32784511 -12.31733704 133.98916626 C-8.76073614 132.78559423 -7.03298533 130.93761119 -4.40673828 128.25854492 C-3.91006653 127.7576384 -3.41339478 127.25673187 -2.90167236 126.74064636 C-1.82721191 125.65433669 -0.75742316 124.56339059 0.30816269 123.46837425 C1.99843721 121.73153655 3.70061002 120.00718853 5.40628052 118.28547668 C9.0283081 114.62459738 12.63360649 110.94748443 16.23828125 107.26953125 C20.41057535 103.01669039 24.58962219 98.77072777 28.7803688 94.53606606 C30.45033549 92.84304919 32.11048624 91.14081826 33.77023315 89.43778992 C34.80457107 88.38934423 35.83931012 87.34129409 36.87451172 86.29370117 C37.76766083 85.38182541 38.66080994 84.46994965 39.58102417 83.53044128 C46.21739746 77.69037601 51.9435915 75.9384116 60.67578125 75.89453125 C62.58810547 75.87326172 62.58810547 75.87326172 64.5390625 75.8515625 C74.53665525 76.4540732 81.8000886 81.00134719 88.42578125 88.26953125 C91.36328125 91.6466571 91.36328125 91.6466571 91.36328125 95.08203125 C92.02328125 95.08203125 92.68328125 95.08203125 93.36328125 95.08203125 C97.44237081 104.32796758 97.8981976 115.59357157 94.36328125 125.08203125 C93.95078125 126.21640625 93.53828125 127.35078125 93.11328125 128.51953125 C88.62173269 137.66304082 81.24179076 144.42474066 74.05078125 151.45703125 C72.5301557 152.94997405 71.01107202 154.4444109 69.49482727 155.94180298 C68.13354962 157.28534482 66.76746517 158.62401126 65.40112305 159.96240234 C63.32415254 161.91236584 63.32415254 161.91236584 62.36328125 164.08203125 C61.70328125 164.08203125 61.04328125 164.08203125 60.36328125 164.08203125 C60.36328125 164.74203125 60.36328125 165.40203125 60.36328125 166.08203125 C59.70328125 166.08203125 59.04328125 166.08203125 58.36328125 166.08203125 C58.36328125 166.74203125 58.36328125 167.40203125 58.36328125 168.08203125 C57.70328125 168.08203125 57.04328125 168.08203125 56.36328125 168.08203125 C56.36328125 168.74203125 56.36328125 169.40203125 56.36328125 170.08203125 C55.70328125 170.08203125 55.04328125 170.08203125 54.36328125 170.08203125 C54.36328125 170.74203125 54.36328125 171.40203125 54.36328125 172.08203125 C53.70328125 172.08203125 53.04328125 172.08203125 52.36328125 172.08203125 C52.14486572 172.62714355 51.9264502 173.17225586 51.70141602 173.73388672 C49.92154487 176.85718551 47.50639311 179.16626095 44.953125 181.65234375 C44.42562149 182.17464569 43.89811798 182.69694763 43.35462952 183.2350769 C41.67470995 184.89723459 39.98823853 186.5525293 38.30078125 188.20703125 C36.61065109 189.86954098 34.92200405 191.53349079 33.23622131 193.20040894 C32.18837154 194.23600345 31.13786011 195.26891308 30.0844574 196.29885864 C27.37966696 198.92793439 27.37966696 198.92793439 25.36328125 202.08203125 C24.70328125 202.08203125 24.04328125 202.08203125 23.36328125 202.08203125 C23.10200943 202.66894745 22.84073761 203.25586365 22.57154846 203.86056519 C21.29108108 206.21477525 19.9337141 207.7465657 18.03100586 209.62548828 C17.35367905 210.29943634 16.67635223 210.9733844 15.97850037 211.66775513 C15.2482515 212.38454437 14.51800262 213.10133362 13.765625 213.83984375 C13.01616104 214.58410614 12.26669708 215.32836853 11.49452209 216.09518433 C9.10130491 218.47059551 6.70150757 220.83921134 4.30078125 223.20703125 C1.89736673 225.58285341 -0.50458744 227.96010614 -2.90367126 230.34030151 C-4.39667895 231.82102558 -5.89235111 233.29906869 -7.3908844 234.77420044 C-8.06505905 235.44184418 -8.7392337 236.10948792 -9.43383789 236.79736328 C-10.32746788 237.67861374 -10.32746788 237.67861374 -11.239151 238.57766724 C-12.73732328 240.04897014 -12.73732328 240.04897014 -13.63671875 242.08203125 C-9.7630621 242.13241902 -5.88953885 242.16820377 -2.015625 242.19189453 C-0.06894195 242.20659901 1.87765072 242.23204327 3.82421875 242.2578125 C23.20216501 242.35667957 39.36429855 238.19594366 56.36328125 229.08203125 C57.26820313 228.60121094 58.173125 228.12039062 59.10546875 227.625 C63.39685764 225.30243738 63.39685764 225.30243738 67.3515625 222.46484375 C70.75431068 220.12586733 73.30985537 220.69599069 77.36328125 221.08203125 C79.36328125 222.08203125 79.36328125 222.08203125 80.36328125 224.08203125 C80.89403984 227.31965863 81.15742995 229.01638369 80.36328125 232.08203125 C78.43690741 234.68140108 76.04557538 236.31006199 73.36328125 238.08203125 C72.68394531 238.55125 72.00460938 239.02046875 71.3046875 239.50390625 C59.23827951 247.28328887 45.31523035 252.85004304 31.36328125 256.08203125 C30.69514404 256.25790771 30.02700684 256.43378418 29.33862305 256.61499023 C21.77454475 258.41497035 14.20730262 258.41989088 6.47924805 258.39770508 C4.19726003 258.39456084 1.91659287 258.41801941 -0.36523438 258.44335938 C-10.16800075 258.48583805 -19.10691802 257.4316763 -28.63671875 255.08203125 C-29.43215088 254.88859131 -30.22758301 254.69515137 -31.04711914 254.49584961 C-46.10033788 250.57157013 -61.06354343 243.25355982 -73.63671875 234.08203125 C-73.63671875 233.42203125 -73.63671875 232.76203125 -73.63671875 232.08203125 C-74.22582031 231.81003906 -74.81492188 231.53804687 -75.421875 231.2578125 C-79.35451747 229.17011341 -82.39465392 226.10316298 -85.63671875 223.08203125 C-86.12382324 222.62892578 -86.61092773 222.17582031 -87.11279297 221.70898438 C-108.95903724 201.19063585 -124.13957638 173.98765279 -125.4609375 143.55859375 C-125.47804782 141.08040139 -125.47804782 141.08040139 -126.63671875 139.08203125 C-126.73326158 137.28068777 -126.76747315 135.47580256 -126.76953125 133.671875 C-126.77082031 132.60001953 -126.77210937 131.52816406 -126.7734375 130.42382812 C-126.76957031 129.30041016 -126.76570313 128.17699219 -126.76171875 127.01953125 C-126.76558594 125.89224609 -126.76945312 124.76496094 -126.7734375 123.60351562 C-126.77214844 122.53294922 -126.77085938 121.46238281 -126.76953125 120.359375 C-126.76840332 119.37187256 -126.76727539 118.38437012 -126.76611328 117.36694336 C-126.63671875 115.08203125 -126.63671875 115.08203125 -125.63671875 114.08203125 C-125.5525914 112.64563469 -125.49618596 111.20762255 -125.44921875 109.76953125 C-124.23065166 95.37169239 -118.59786324 81.59238998 -111.63671875 69.08203125 C-110.9715625 67.82519531 -110.9715625 67.82519531 -110.29296875 66.54296875 C-107.44448682 61.22945437 -104.42631397 55.78290744 -100.63671875 51.08203125 C-99.97671875 51.08203125 -99.31671875 51.08203125 -98.63671875 51.08203125 C-98.37117188 50.499375 -98.105625 49.91671875 -97.83203125 49.31640625 C-93.56917605 41.34793183 -85.10340335 33.10619791 -77.63671875 28.08203125 C-76.97671875 28.08203125 -76.31671875 28.08203125 -75.63671875 28.08203125 C-75.63671875 27.42203125 -75.63671875 26.76203125 -75.63671875 26.08203125 C-55.34976646 9.43031319 -25.81305225 0.5822493 0 0 Z " fill="#030303" transform="translate(154.63671875,18.91796875)"/>
<path d="M0 0 C1.43352212 0.00015908 2.86704998 0.00585132 4.30053711 0.01586914 C5.43041298 0.01799156 5.43041298 0.01799156 6.58311462 0.02015686 C8.99807646 0.02577163 11.41294687 0.03832656 13.82788086 0.05102539 C15.46134307 0.05603849 17.09480672 0.06060173 18.72827148 0.06469727 C22.74067671 0.07574585 26.75301326 0.09302033 30.76538086 0.11352539 C29.78495917 5.81864587 29.78495917 5.81864587 26.76538086 8.11352539 C26.10538086 8.11352539 25.44538086 8.11352539 24.76538086 8.11352539 C24.54245361 8.66314941 24.31952637 9.21277344 24.08984375 9.77905273 C22.36739554 12.81500662 20.05395092 15.05328358 17.57397461 17.46508789 C16.81601341 18.21524673 16.81601341 18.21524673 16.04273987 18.9805603 C14.43415002 20.57139482 12.81901266 22.15535623 11.20288086 23.73852539 C9.58407848 25.32970315 7.96676265 26.9223224 6.35231018 28.51791382 C5.34897659 29.50899637 4.34298178 30.49739347 3.33409119 31.4828186 C0.71366621 34.0421122 0.71366621 34.0421122 -1.23461914 37.11352539 C-1.89461914 37.11352539 -2.55461914 37.11352539 -3.23461914 37.11352539 C-3.23461914 37.77352539 -3.23461914 38.43352539 -3.23461914 39.11352539 C-3.89461914 39.11352539 -4.55461914 39.11352539 -5.23461914 39.11352539 C-5.23461914 39.77352539 -5.23461914 40.43352539 -5.23461914 41.11352539 C-6.8608014 42.84370768 -8.51760818 44.4767045 -10.23461914 46.11352539 C-11.48181399 47.34416755 -12.72644119 48.57741533 -13.96899414 49.81274414 C-14.62512695 50.46436523 -15.28125977 51.11598633 -15.95727539 51.78735352 C-16.96081055 52.78412109 -16.96081055 52.78412109 -17.98461914 53.80102539 C-18.66911133 54.47713867 -19.35360352 55.15325195 -20.05883789 55.84985352 C-20.70981445 56.49760742 -21.36079102 57.14536133 -22.03149414 57.81274414 C-22.91853027 58.69192505 -22.91853027 58.69192505 -23.82348633 59.58886719 C-25.33291738 61.07734357 -25.33291738 61.07734357 -26.23461914 63.11352539 C-26.89461914 63.11352539 -27.55461914 63.11352539 -28.23461914 63.11352539 C-28.23461914 63.77352539 -28.23461914 64.43352539 -28.23461914 65.11352539 C-28.89461914 65.11352539 -29.55461914 65.11352539 -30.23461914 65.11352539 C-30.23461914 65.77352539 -30.23461914 66.43352539 -30.23461914 67.11352539 C-30.89461914 67.11352539 -31.55461914 67.11352539 -32.23461914 67.11352539 C-32.49341354 67.69894608 -32.75220795 68.28436676 -33.0188446 68.88752747 C-34.32892512 71.28619302 -35.73197437 72.82650195 -37.68701172 74.72949219 C-38.39146927 75.42088791 -39.09592682 76.11228363 -39.82173157 76.82463074 C-40.58317978 77.56320816 -41.34462799 78.30178558 -42.12915039 79.06274414 C-43.74075968 80.64904708 -45.35207858 82.23564509 -46.96313477 83.82250977 C-49.50032152 86.31021195 -52.0405489 88.79462823 -54.58642578 91.2734375 C-57.04717505 93.67338024 -59.49500775 96.08593316 -61.94165039 98.50024414 C-62.69702591 99.22870041 -63.45240143 99.95715668 -64.23066711 100.70768738 C-68.99090842 105.42287093 -72.30119351 110.09888977 -75.23461914 116.11352539 C-75.83274414 117.26852539 -76.43086914 118.42352539 -77.04711914 119.61352539 C-80.19136738 128.61258069 -79.46623315 140.56191849 -75.38696289 149.09790039 C-73.79640119 151.88003544 -72.08559328 154.49663091 -70.23461914 157.11352539 C-69.90461914 158.10352539 -69.57461914 159.09352539 -69.23461914 160.11352539 C-67.39437777 161.19291081 -67.39437777 161.19291081 -65.23461914 162.11352539 C-64.2890918 162.75161133 -64.2890918 162.75161133 -63.32446289 163.40258789 C-57.51761208 167.00684012 -52.29153974 167.62306092 -45.60961914 167.67602539 C-44.81031982 167.69036621 -44.01102051 167.70470703 -43.1875 167.71948242 C-28.11396597 167.46760903 -17.32165705 154.53118692 -7.48964119 144.42718124 C-5.97741099 142.87472148 -4.45709501 141.33058678 -2.93443298 139.7883606 C1.38465153 135.4118923 5.69280703 131.02486721 9.98730469 126.62426758 C12.63480371 123.91250043 15.29422572 121.21292774 17.96164131 118.52075577 C18.97066717 117.49747105 19.97499686 116.46953339 20.97447014 115.43691635 C22.36195831 114.00394515 23.76628713 112.58733742 25.17138672 111.17163086 C25.96427597 110.36160614 26.75716522 109.55158142 27.57408142 108.7170105 C29.76538086 107.11352539 29.76538086 107.11352539 31.86347961 107.19512939 C33.89512081 108.17617462 35.19268262 109.16044639 36.78979492 110.74975586 C37.35007385 111.30057831 37.91035278 111.85140076 38.48760986 112.41891479 C39.07943054 113.01680817 39.67125122 113.61470154 40.28100586 114.23071289 C40.89683533 114.84367218 41.51266479 115.45663147 42.14715576 116.08816528 C43.44513926 117.38410942 44.73935035 118.68384137 46.0300293 119.98706055 C48.0115014 121.98461444 50.00848362 123.9656466 52.00756836 125.94555664 C53.26634415 127.20631435 54.52418929 128.46800208 55.78100586 129.73071289 C56.38092346 130.3245578 56.98084106 130.91840271 57.59893799 131.53024292 C61.76538086 135.76862669 61.76538086 135.76862669 61.76538086 139.11352539 C61.10538086 139.11352539 60.44538086 139.11352539 59.76538086 139.11352539 C59.76538086 139.77352539 59.76538086 140.43352539 59.76538086 141.11352539 C59.10538086 141.11352539 58.44538086 141.11352539 57.76538086 141.11352539 C57.50635986 141.69924316 57.24733887 142.28496094 56.98046875 142.88842773 C55.6753596 145.27837445 54.27198758 146.82070879 52.32397461 148.71508789 C51.32527344 149.69735352 51.32527344 149.69735352 50.30639648 150.69946289 C49.61223633 151.37235352 48.91807617 152.04524414 48.20288086 152.73852539 C46.82439549 154.08264408 45.44798685 155.42889692 44.07397461 156.77758789 C43.46352295 157.37007324 42.85307129 157.96255859 42.22412109 158.57299805 C40.66727304 160.06786587 40.66727304 160.06786587 39.76538086 162.11352539 C39.10538086 162.11352539 38.44538086 162.11352539 37.76538086 162.11352539 C37.76538086 162.77352539 37.76538086 163.43352539 37.76538086 164.11352539 C37.10538086 164.11352539 36.44538086 164.11352539 35.76538086 164.11352539 C35.60262044 162.09529622 35.43986003 160.07706706 35.27709961 158.05883789 C34.8914505 155.71833323 34.8914505 155.71833323 31.76538086 154.11352539 C28.56583573 154.01573908 26.53888649 154.51422735 23.98962402 156.48934937 C21.95330514 158.41204775 20.0189049 160.4039635 18.09350586 162.43774414 C17.37104675 163.17676468 16.64858765 163.91578522 15.90423584 164.67720032 C13.59562793 167.04019194 11.30402652 169.41870516 9.01538086 171.80102539 C6.74032796 174.16475123 4.46156709 176.52417856 2.16937256 178.87129211 C0.74549776 180.32951104 -0.66891247 181.79705812 -2.07171631 183.27555847 C-8.64951401 190.01706405 -17.28678772 196.91851452 -27.04711914 197.23852539 C-28.09899414 197.19727539 -29.15086914 197.15602539 -30.23461914 197.11352539 C-30.23461914 197.77352539 -30.23461914 198.43352539 -30.23461914 199.11352539 C-45.37177892 199.72512781 -57.81243481 198.7207033 -70.23461914 189.11352539 C-71.75055664 187.99977539 -71.75055664 187.99977539 -73.29711914 186.86352539 C-73.93649414 186.28602539 -74.57586914 185.70852539 -75.23461914 185.11352539 C-75.23461914 184.45352539 -75.23461914 183.79352539 -75.23461914 183.11352539 C-75.89461914 183.11352539 -76.55461914 183.11352539 -77.23461914 183.11352539 C-78.91911053 181.06547471 -80.4633167 179.0288337 -81.98461914 176.86352539 C-82.43345459 176.22600342 -82.88229004 175.58848145 -83.34472656 174.93164062 C-99.47278758 151.56644285 -104.81978107 121.02514217 -100.23461914 93.11352539 C-98.57967303 84.65362606 -95.82809705 76.93347868 -92.23461914 69.11352539 C-91.70739258 67.9649707 -91.18016602 66.81641602 -90.63696289 65.63305664 C-85.55659948 55.02099912 -79.03922357 46.16781201 -71.54711914 37.17602539 C-71.095625 36.63196045 -70.64413086 36.08789551 -70.17895508 35.52734375 C-67.45249164 32.31929846 -64.67664387 29.5469841 -61.23461914 27.11352539 C-60.57461914 27.11352539 -59.91461914 27.11352539 -59.23461914 27.11352539 C-59.23461914 26.45352539 -59.23461914 25.79352539 -59.23461914 25.11352539 C-57.58461914 24.45352539 -55.93461914 23.79352539 -54.23461914 23.11352539 C-54.23461914 22.45352539 -54.23461914 21.79352539 -54.23461914 21.11352539 C-51.23461914 19.11352539 -51.23461914 19.11352539 -48.23461914 19.11352539 C-48.23461914 18.45352539 -48.23461914 17.79352539 -48.23461914 17.11352539 C-21.19923256 3.12731128 -21.19923256 3.12731128 -7.85961914 1.55102539 C-4.06255337 1.09275883 -3.70148531 0.12991099 0 0 Z " fill="#FCFCFC" transform="translate(144.234619140625,34.886474609375)"/>
<path d="M0 0 C0.74805908 0.00346436 1.49611816 0.00692871 2.2668457 0.01049805 C7.82828223 0.11997276 12.56952935 0.88324787 17.625 3.3125 C18.800625 3.869375 19.97625 4.42625 21.1875 5 C21.991875 5.433125 22.79625 5.86625 23.625 6.3125 C23.625 6.9725 23.625 7.6325 23.625 8.3125 C24.285 8.3125 24.945 8.3125 25.625 8.3125 C32.15710862 14.62687167 33.81688285 23.07107836 34.00375366 31.80961609 C34.02407201 36.54136346 33.95904815 41.26911999 33.875 46 C33.85490243 47.97328915 33.83665743 49.94659808 33.8203125 51.91992188 C33.7765793 56.71794274 33.70773198 61.51499961 33.625 66.3125 C38.575 65.8175 38.575 65.8175 43.625 65.3125 C43.98990009 71.63743484 43.98990009 71.63743484 42.375 74.625 C39.2664796 77.62250182 36.47541074 78.59222555 32.1875 78.5625 C28.60583531 78.49157595 25.85285515 77.97848975 22.625 76.3125 C22.625 75.6525 22.625 74.9925 22.625 74.3125 C21.965 74.3125 21.305 74.3125 20.625 74.3125 C18.60149676 71.27724514 18.30375982 70.11823798 18 66.625 C17.92523437 65.81675781 17.85046875 65.00851563 17.7734375 64.17578125 C17.72445312 63.56089844 17.67546875 62.94601563 17.625 62.3125 C16.965 62.3125 16.305 62.3125 15.625 62.3125 C15.46 62.993125 15.295 63.67375 15.125 64.375 C12.01465774 70.46608693 5.81543706 75.0981937 -0.48046875 77.65625 C-4.51553281 78.57108234 -8.43444261 78.70723296 -12.5625 78.75 C-13.33513184 78.76023193 -14.10776367 78.77046387 -14.90380859 78.78100586 C-20.60214068 78.6931407 -24.76741381 77.48548849 -29.25 73.75 C-30.375 72.3125 -30.375 72.3125 -30.375 70.3125 C-31.035 70.3125 -31.695 70.3125 -32.375 70.3125 C-33.45616875 62.23295518 -33.80792309 55.88978961 -29.3125 48.75 C-23.74871916 41.51057756 -16.0103079 38.38557046 -7.375 36.3125 C-6.76213135 36.13831543 -6.1492627 35.96413086 -5.51782227 35.78466797 C-3.21825977 35.2779625 -1.18096856 35.19894616 1.171875 35.21484375 C2.01621094 35.21806641 2.86054687 35.22128906 3.73046875 35.22460938 C5.03951172 35.23717773 5.03951172 35.23717773 6.375 35.25 C7.70724609 35.25676758 7.70724609 35.25676758 9.06640625 35.26367188 C11.25267329 35.275426 13.43880179 35.29185751 15.625 35.3125 C15.36882807 32.74776688 15.09565547 30.18677663 14.8125 27.625 C14.74224609 26.90376953 14.67199219 26.18253906 14.59960938 25.43945312 C14.10016491 21.06431964 13.36028623 17.91591233 10.625 14.3125 C9.965 13.9825 9.305 13.6525 8.625 13.3125 C8.625 12.6525 8.625 11.9925 8.625 11.3125 C6.22885874 11.25824774 3.83396147 11.21870973 1.4375 11.1875 C0.76396484 11.17074219 0.09042969 11.15398437 -0.60351562 11.13671875 C-4.6276393 11.09745901 -7.8414829 11.30285374 -11.375 13.3125 C-12.61862743 17.04338229 -12.87552981 20.40672642 -12.375 24.3125 C-10.89609931 26.04276102 -10.89609931 26.04276102 -9.375 27.3125 C-9.6875 29.5 -9.6875 29.5 -10.375 31.3125 C-14.27127447 32.61125816 -18.3236079 32.88904426 -22.375 32.3125 C-26.12712276 30.29747111 -28.01144095 28.85783858 -30.375 25.3125 C-31.17698574 20.48370164 -31.16709597 15.78461659 -28.5 11.5625 C-21.38604862 3.01363229 -10.72059408 -0.08076912 0 0 Z " fill="#070707" transform="translate(856.375,116.6875)"/>
<path d="M0 0 C0.75990234 -0.01611328 1.51980469 -0.03222656 2.30273438 -0.04882812 C10.87703224 -0.05615033 18.15592196 2.88233391 24.625 8.5625 C31.89442903 16.76390711 33.41249323 25.54356212 33.22265625 36.21484375 C33.21745468 37.01861954 33.21225311 37.82239532 33.20689392 38.65052795 C33.18927454 41.18388101 33.15809313 43.71680581 33.125 46.25 C33.09735349 48.80814313 33.07269054 51.36623048 33.05381775 53.92445374 C33.04158163 55.50819555 33.02399845 57.09190705 33.00050354 58.67552185 C32.87537382 62.62203734 32.87537382 62.62203734 34.0625 66.3125 C38.5175 65.8175 38.5175 65.8175 43.0625 65.3125 C43.77815293 67.88885055 44.19842971 69.75178996 43.5625 72.375 C40.65088427 76.13583699 37.1844344 77.94711161 32.58984375 78.73828125 C28.31684157 78.96385452 25.05002392 78.82232858 21.5625 76.1875 C17.77396029 71.83067934 16.72630033 68.02789445 17.0625 62.3125 C16.4025 62.3125 15.7425 62.3125 15.0625 62.3125 C14.8975 62.993125 14.7325 63.67375 14.5625 64.375 C11.47458407 70.4221687 5.28232317 75.11870989 -0.98046875 77.65234375 C-5.17721438 78.58926583 -9.27169041 78.74733248 -13.5625 78.8125 C-14.37436768 78.83111084 -15.18623535 78.84972168 -16.02270508 78.86889648 C-21.80091691 78.8081353 -25.18309234 77.6133308 -29.9375 74.3125 C-33.46002424 70.60933349 -34.19793602 67.77918537 -34.3125 62.8125 C-33.99805506 55.31653833 -32.26820905 50.76717902 -26.9375 45.3125 C-24.125 43.9375 -24.125 43.9375 -21.9375 43.3125 C-21.9375 42.6525 -21.9375 41.9925 -21.9375 41.3125 C-20.63053325 40.67601028 -19.31646647 40.05410139 -18 39.4375 C-17.26910156 39.08945313 -16.53820312 38.74140625 -15.78515625 38.3828125 C-8.50997998 35.64838411 -1.59787319 35.03172444 6.125 35.1875 C6.99060547 35.19652344 7.85621094 35.20554688 8.74804688 35.21484375 C10.85298779 35.23810277 12.95778342 35.27395992 15.0625 35.3125 C14.94913963 23.33743693 14.94913963 23.33743693 9.0625 13.3125 C4.15790938 10.04277292 -1.20901288 10.78598464 -6.9375 11.3125 C-10.25633837 12.08887112 -10.65970048 12.51406058 -12.9375 15.3125 C-13.41391245 19.03279951 -13.28453557 22.58508092 -12.9375 26.3125 C-11.9475 26.6425 -10.9575 26.9725 -9.9375 27.3125 C-10.2675 28.6325 -10.5975 29.9525 -10.9375 31.3125 C-15.89651823 32.96550608 -20.99461519 33.17600436 -25.75 31.0625 C-28.67843709 28.71975033 -30.65201604 26.73278269 -31.40625 22.98046875 C-31.47213179 17.75110137 -31.09609073 14.00627522 -27.6875 9.91015625 C-19.67848542 2.59835499 -10.62683393 -0.04483896 0 0 Z " fill="#070707" transform="translate(681.9375,116.6875)"/>
<path d="M0 0 C7.94438377 4.23700467 11.45881263 9.61217273 14.05078125 18.09375 C14.57871805 21.77221552 14.63244602 25.38543111 14.625 29.09765625 C14.63916458 30.10215317 14.65332916 31.10665009 14.66792297 32.1415863 C14.70948048 35.31325331 14.72501172 38.4843502 14.73828125 41.65625 C14.76733007 44.86002266 14.80177354 48.06365223 14.84077454 51.26731873 C14.86329034 53.25265488 14.87909239 55.23808048 14.88761902 57.223526 C14.8981707 58.55642921 14.8981707 58.55642921 14.90893555 59.91625977 C14.91241501 60.70106216 14.91589447 61.48586456 14.91947937 62.29444885 C14.8553222 64.11621365 14.8553222 64.11621365 16.05078125 65.09375 C16.25390625 67.08984375 16.25390625 67.08984375 16.30078125 69.53125 C16.3265625 70.33433594 16.35234375 71.13742188 16.37890625 71.96484375 C16.270625 72.66738281 16.16234375 73.36992187 16.05078125 74.09375 C12.64730319 76.36273537 11.13157589 76.44681118 7.11328125 76.53125 C5.55287109 76.59119141 5.55287109 76.59119141 3.9609375 76.65234375 C1.05078125 76.09375 1.05078125 76.09375 -1.09960938 74.25976562 C-3.85142099 69.54943128 -3.49494908 65.24106174 -3.453125 59.87890625 C-3.46254623 58.79040878 -3.47196747 57.70191132 -3.48167419 56.58042908 C-3.51032898 53.10551097 -3.51340227 49.63127673 -3.51171875 46.15625 C-3.51532798 42.68489365 -3.52488477 39.21403515 -3.55247498 35.74278259 C-3.5692416 33.58477559 -3.5721563 31.42660476 -3.5594635 29.26856995 C-3.60517491 22.73103647 -4.11095892 17.93200983 -8.94921875 13.09375 C-13.26749864 11.94508755 -16.98305752 11.80207869 -21.26171875 13.09375 C-25.72439617 16.41481227 -27.5255323 20.15185375 -28.69921875 25.53125 C-28.82296875 26.7996875 -28.82296875 26.7996875 -28.94921875 28.09375 C-29.60921875 28.09375 -30.26921875 28.09375 -30.94921875 28.09375 C-32.20620561 43.51428527 -32.31771902 58.6736844 -30.94921875 74.09375 C-35.38608696 77.05166214 -39.74330342 76.74936752 -44.94921875 76.09375 C-47.60485677 74.1968657 -48.52164402 72.94889945 -49.94921875 70.09375 C-50.06904132 68.21530092 -50.12651036 66.33274169 -50.15454102 64.45068359 C-50.17448624 63.26961029 -50.19443146 62.08853699 -50.21498108 60.87167358 C-50.23169357 59.59144318 -50.24840607 58.31121277 -50.265625 56.9921875 C-50.2864061 55.68545074 -50.30718719 54.37871399 -50.32859802 53.03237915 C-50.38381169 49.557061 -50.433224 46.08168347 -50.48144531 42.60626221 C-50.53166552 39.060371 -50.58734887 35.5145661 -50.64257812 31.96875 C-50.75015103 25.0104915 -50.85159792 18.05215504 -50.94921875 11.09375 C-53.91921875 10.76375 -56.88921875 10.43375 -59.94921875 10.09375 C-59.94921875 8.11375 -59.94921875 6.13375 -59.94921875 4.09375 C-58.62921875 3.43375 -57.30921875 2.77375 -55.94921875 2.09375 C-55.94921875 1.43375 -55.94921875 0.77375 -55.94921875 0.09375 C-50.36116545 -1.76893443 -45.31706609 -1.22418408 -39.94921875 1.09375 C-36.92705015 3.45828289 -36.39026509 5.55832167 -35.76171875 9.28125 C-35.60316406 10.18230469 -35.44460938 11.08335937 -35.28125 12.01171875 C-35.17167969 12.69878906 -35.06210937 13.38585937 -34.94921875 14.09375 C-34.5625 13.56265625 -34.17578125 13.0315625 -33.77734375 12.484375 C-28.34622611 5.11741345 -24.80726405 1.65491595 -15.94921875 -0.90625 C-10.37714669 -2.76360735 -5.33763408 -2.23869701 0 0 Z " fill="#060606" transform="translate(789.94921875,118.90625)"/>
<path d="M0 0 C2.93252054 2.06305817 4.74114833 3.67400756 5.4458313 7.28381348 C5.60964566 10.16366934 5.61310961 13.00646081 5.56640625 15.890625 C5.57204086 16.9498114 5.57767548 18.0089978 5.58348083 19.10028076 C5.59993023 22.48397055 5.58440295 25.86635574 5.5625 29.25 C5.54585878 32.61924367 5.53689295 35.98761464 5.55223083 39.35687256 C5.56144405 41.45050352 5.55257222 43.54431969 5.52259827 45.63775635 C5.54615712 51.9825441 6.23329792 59.23329792 11 64 C16.429397 64.51507499 21.39075186 64.63220462 26.5 62.625 C33.96078931 54.79117123 34.16803295 43.87952476 34.02734375 33.63671875 C34.01471243 31.84570495 34.0023504 30.05468923 33.99023438 28.26367188 C33.96530196 25.4611199 33.93715941 22.65866896 33.90405273 19.85620117 C33.87398105 17.13720022 33.85613059 14.41833211 33.83984375 11.69921875 C33.82638412 10.85654953 33.8129245 10.01388031 33.79905701 9.14567566 C33.79015669 7.0960417 33.8859039 5.04647518 34 3 C36.99576894 0.00423106 39.31693632 0.06098783 43.5 -0.3125 C47 0 47 0 49.375 1.875 C51.98853618 5.29270116 52.14070293 7.28639363 52.20532227 11.55126953 C52.2352401 13.29284836 52.2352401 13.29284836 52.26576233 15.0696106 C52.28247482 16.32796722 52.29918732 17.58632385 52.31640625 18.8828125 C52.33718735 20.16735321 52.35796844 21.45189392 52.37937927 22.77536011 C52.43459049 26.19149359 52.48400388 29.60768745 52.53222656 33.02392578 C52.58244857 36.50949481 52.63813097 39.99497609 52.69335938 43.48046875 C52.80092928 50.32023642 52.90237684 57.16008334 53 64 C56.09773244 64.84062397 58.78332751 65.08935201 62 65 C62.3125 67.6875 62.3125 67.6875 62 71 C59.5625 73.8125 59.5625 73.8125 57 76 C56.67 76.33 56.34 76.66 56 77 C51.69806177 77.46219171 48.03835613 77.46394636 44.0625 75.6875 C39.92827302 72.30495065 39.57697654 69.09662613 39 64 C38.34 64 37.68 64 37 64 C36.608125 64.70125 36.21625 65.4025 35.8125 66.125 C32.52625627 71.33766246 27.94991883 75.23676289 22 77 C18.72621865 77.38276109 15.48132352 77.46122062 12.1875 77.5 C11.32318359 77.54125 10.45886719 77.5825 9.56835938 77.625 C2.75322014 77.70729602 -1.14014929 75.73417121 -6 71 C-12.38639073 63.10104304 -12.31765642 55.02431387 -12.4140625 45.28515625 C-12.43342865 44.07427841 -12.4527948 42.86340057 -12.4727478 41.61582947 C-12.53232038 37.76479033 -12.57884016 33.91372095 -12.625 30.0625 C-12.66320027 27.44464873 -12.70225318 24.82680976 -12.7421875 22.20898438 C-12.83800366 15.80609906 -12.92311618 9.40313914 -13 3 C-5.53372434 -1.51906158 -5.53372434 -1.51906158 0 0 Z " fill="#060606" transform="translate(460,118)"/>
<path d="M0 0 C1.03125 -0.0309375 2.0625 -0.061875 3.125 -0.09375 C6 0.5 6 0.5 8.15130615 2.50822449 C10.53055791 6.3586117 10.53431818 9.57687063 10.45410156 13.9621582 C10.45468567 14.8016954 10.45526978 15.6412326 10.45587158 16.50621033 C10.45309263 19.27149303 10.42201006 22.03568768 10.390625 24.80078125 C10.38316193 26.72177034 10.37746931 28.64276705 10.37347412 30.56376648 C10.35822302 35.61261116 10.31894559 40.66099342 10.2746582 45.70965576 C10.23369428 50.86431625 10.2154607 56.01905168 10.1953125 61.17382812 C10.15245094 71.28275493 10.08420582 81.39133896 10 91.5 C11.34578125 91.36368164 11.34578125 91.36368164 12.71875 91.22460938 C16.08058952 90.88599434 19.44274743 90.5509588 22.80517578 90.21826172 C24.25420995 90.07416422 25.70310738 89.92868414 27.15185547 89.78173828 C29.24671648 89.56950908 31.34203584 89.36242871 33.4375 89.15625 C35.32275391 88.96772461 35.32275391 88.96772461 37.24609375 88.77539062 C41.20435435 88.48500834 45.03330391 88.38561758 49 88.5 C50.65766798 90.15766798 50.21049503 92.10346405 50.25 94.375 C50.28867187 95.70144531 50.28867187 95.70144531 50.328125 97.0546875 C49.92927086 100.02710049 49.34262875 100.69067566 47 102.5 C44.81265259 102.88768005 44.81265259 102.88768005 42.24072266 102.90405273 C41.27607086 102.91673691 40.31141907 102.92942108 39.3175354 102.94248962 C38.27688934 102.93955399 37.23624329 102.93661835 36.1640625 102.93359375 C35.09255951 102.9388356 34.02105652 102.94407745 32.91708374 102.94947815 C30.64915839 102.955905 28.38119974 102.95455283 26.11328125 102.94604492 C22.64522736 102.93754955 19.17882796 102.96626527 15.7109375 102.99804688 C13.50781299 102.99965932 11.30468557 102.99908052 9.1015625 102.99609375 C7.54666611 103.01294472 7.54666611 103.01294472 5.96035767 103.03013611 C-1.24339143 102.96053665 -1.24339143 102.96053665 -5.13134766 100.59399414 C-8.60424924 96.70229348 -8.16396385 93.1538443 -8.18945312 88.16650391 C-8.19774643 87.30456924 -8.20603973 86.44263458 -8.21458435 85.55458069 C-8.23200583 83.6791939 -8.24716688 81.80378509 -8.26036072 79.9283638 C-8.28135723 76.96141073 -8.30838373 73.9945678 -8.33703613 71.02767944 C-8.39679336 64.72682849 -8.44890332 58.42592635 -8.5 52.125 C-8.55921463 44.8318928 -8.62153691 37.53883961 -8.69187927 30.24583054 C-8.71845958 27.32101923 -8.73927295 24.39620256 -8.7598877 21.47134399 C-8.77649279 19.67832175 -8.79336481 17.88530196 -8.81054688 16.09228516 C-8.81473129 15.27759262 -8.81891571 14.46290009 -8.82322693 13.6235199 C-8.86251716 10.08486172 -9.05053166 6.90586973 -10 3.5 C-6.71155454 0.52775122 -4.39439022 0.0439439 0 0 Z " fill="#020202" transform="translate(344,91.5)"/>
<path d="M0 0 C4.3353292 2.67499035 5.3457181 5.65399524 6.625 10.375 C6.82351563 11.26960937 7.02203125 12.16421875 7.2265625 13.0859375 C7.95649469 16.12274256 7.95649469 16.12274256 9.43359375 19.33203125 C11.11728886 23.27464897 12.29499223 27.19052946 13.4375 31.3125 C14.80036718 36.11793762 16.21010827 40.77830205 18.1875 45.375 C20.34018096 50.42987837 21.21740496 55.58361851 22 61 C23.98058765 58.02911852 24.71893055 55.90094975 25.6875 52.5 C27.41109757 46.72239766 29.39075917 41.08505659 31.5 35.4375 C37.21004231 20.24906469 37.21004231 20.24906469 40.5078125 4.3984375 C41 2 41 2 43 0 C47.50122199 -0.67439911 51.63254365 -0.78140363 55.625 1.5 C57.62779974 5.14145407 57.73416678 8.01271491 57 12 C54.6991845 19.29848851 51.47546245 26.19642905 48.25 33.12109375 C46.84007362 36.36833045 45.66405823 39.65697028 44.5 43 C42.34199323 49.18989403 39.79006486 55.07452023 37 61 C36.24555444 62.68551717 35.49525408 64.37289869 34.75 66.0625 C33.86646347 68.06494141 32.9788487 70.04230261 32 72 C31.34 72 30.68 72 30 72 C30 72.66 30 73.32 30 74 C26.64802157 76.23465229 25.42208754 76.27108649 21.5 76.25 C20.06140625 76.25773437 20.06140625 76.25773437 18.59375 76.265625 C16 76 16 76 13 74 C13 73.34 13 72.68 13 72 C12.34 72 11.68 72 11 72 C7.90713268 64.50697091 4.94423157 57.02429201 2.4375 49.3125 C0.65089935 43.82183241 -1.39312623 38.54979209 -3.67578125 33.25 C-5.58988801 28.55225125 -7.23137675 23.76564331 -8.85717773 18.96142578 C-9.96811995 15.72330114 -11.12860688 12.74338861 -12.66796875 9.671875 C-14.08293714 6.83363929 -14.27558464 5.12329258 -14 2 C-9.43436471 -0.6255039 -5.15103287 -0.7693101 0 0 Z " fill="#060606" transform="translate(540,119)"/>
<path d="M0 0 C0.83660156 0.0103125 1.67320312 0.020625 2.53515625 0.03125 C5.34209963 0.57894627 6.7988469 1.6428786 8.9375 3.5 C8.77498025 4.08195759 8.6124605 4.66391518 8.44501591 5.26350784 C7.64489343 8.78944197 7.80779088 12.34322078 7.82397461 15.94042969 C7.82382858 16.78957443 7.82368256 17.63871918 7.8235321 18.51359558 C7.82422799 21.3163815 7.83200524 24.11910071 7.83984375 26.921875 C7.84170908 28.86671919 7.84313244 30.81156386 7.84413147 32.75640869 C7.84794758 37.87247009 7.85777016 42.98850305 7.86883545 48.10455322 C7.87906902 53.32620865 7.88363326 58.54786868 7.88867188 63.76953125 C7.89939322 74.01303332 7.9164588 84.25651429 7.9375 94.5 C11.66951925 95.34676067 14.20690301 95.45929637 17.9375 94.5 C18.6875 96.625 18.6875 96.625 18.9375 99.5 C16.83265513 103.47581809 15.15435752 105.90680253 10.9375 107.5 C5.96738821 108.11002664 0.4615784 108.6710604 -4.17578125 106.51953125 C-6.96547853 104.26977538 -8.84202809 101.82827133 -10.0625 98.5 C-10.26931988 95.49902249 -10.36654201 92.58981741 -10.36889648 89.58813477 C-10.37722 88.68850006 -10.38554352 87.78886536 -10.39411926 86.86196899 C-10.41821286 83.88840406 -10.42698991 80.91505843 -10.43359375 77.94140625 C-10.44255939 75.87401768 -10.45168123 73.80662978 -10.46095276 71.73924255 C-10.47744275 67.40581688 -10.4851431 63.07246848 -10.48803711 58.73901367 C-10.49342595 53.18586254 -10.53112699 47.63343708 -10.57678127 42.08049107 C-10.60651761 37.81081994 -10.6137599 33.54132445 -10.61476326 29.27155876 C-10.61897108 27.22420866 -10.6314278 25.17685829 -10.65228081 23.12961006 C-10.67912856 20.26628243 -10.67438986 17.40464887 -10.66186523 14.54125977 C-10.67669952 13.69590164 -10.69153381 12.85054352 -10.70681763 11.97956848 C-10.6528187 7.64572961 -10.4531988 5.99727512 -7.68348694 2.47203064 C-4.79696644 0.30021254 -3.55761582 -0.1319672 0 0 Z " fill="#050505" transform="translate(417.0625,87.5)"/>
<path d="M0 0 C2.49671439 2.42537969 3.13775129 3.24269591 3.33226013 6.69235229 C3.341772 7.77726959 3.35128387 8.86218689 3.36108398 9.97998047 C3.37457382 11.20820526 3.38806366 12.43643005 3.40196228 13.70187378 C3.40702223 14.36004971 3.41208218 15.01822563 3.41729546 15.69634628 C3.43370378 17.75599877 3.45694193 19.81546861 3.48219299 21.87503052 C3.55296925 27.7312103 3.61305362 33.58746511 3.66430664 39.44384766 C3.69613044 43.025386 3.73741558 46.60671503 3.78450203 50.18808365 C3.80050319 51.55237176 3.81283349 52.91670809 3.82140923 54.28106308 C3.83358728 56.19119591 3.85877387 58.10123236 3.88452148 60.01123047 C3.89482895 61.09773895 3.90513641 62.18424744 3.91575623 63.30368042 C4.18762919 66.12634127 4.85532344 67.67348019 6.1875 70.125 C6.1875 71.115 6.1875 72.105 6.1875 73.125 C2.81283835 75.15304186 0.09860976 75.45111113 -3.8125 75.5 C-4.84375 75.52835937 -5.875 75.55671875 -6.9375 75.5859375 C-10.59354196 74.9997786 -11.54440519 74.01302242 -13.8125 71.125 C-14.32475281 68.25898743 -14.32475281 68.25898743 -14.3425293 64.90356445 C-14.35902023 63.6457869 -14.37551117 62.38800934 -14.39250183 61.09211731 C-14.39084763 59.7241716 -14.38891333 58.3562262 -14.38671875 56.98828125 C-14.39916467 55.58390052 -14.41349912 54.17953536 -14.42964172 52.77519226 C-14.46764385 49.0848366 -14.4828526 45.39474932 -14.49243164 41.70422363 C-14.51219019 35.78653856 -14.56889734 29.8690578 -14.62119484 23.95158958 C-14.63658414 21.8813893 -14.64373912 19.81129058 -14.64933777 17.74104309 C-14.65637222 16.49272202 -14.66340668 15.24440094 -14.6706543 13.95825195 C-14.67413376 12.85334915 -14.67761322 11.74844635 -14.68119812 10.61006165 C-14.53166049 8.18290189 -14.53166049 8.18290189 -15.8125 7.125 C-16 4.1875 -16 4.1875 -15.8125 1.125 C-11.67672648 -3.01077352 -4.7323029 -3.1548686 0 0 Z " fill="#020202" transform="translate(625.8125,119.875)"/>
<path d="M0 0 C-1.26226376 10.1221532 -5.14997982 14.51293917 -12.5625 21.1796875 C-16.8237261 24.3619493 -20.74916624 24.36847956 -26 24 C-28.875 23 -28.875 23 -31 21 C-31.97252083 16.98024722 -32.2766861 14.32194472 -31.4375 10.3125 C-28.16155748 5.0425055 -23.6031738 2.27038649 -17.7890625 0.4921875 C-11.92564852 -0.54253261 -5.92803494 -0.21087871 0 0 Z " fill="#F6F6F6" transform="translate(697,160)"/>
<path d="M0 0 C0.87840996 3.09720845 0.99435406 4.90645403 0 8 C-0.66 8 -1.32 8 -2 8 C-2 9.32 -2 10.64 -2 12 C-2.66 12 -3.32 12 -4 12 C-4.26296875 12.59554687 -4.5259375 13.19109375 -4.796875 13.8046875 C-7.2460041 18.27355294 -11.3827976 21.1913988 -15.875 23.4375 C-20.09698861 24.19745795 -23.84395063 24.10013072 -28 23 C-30.0625 21.4375 -30.0625 21.4375 -31 19 C-31.661252 13.87529696 -31.6874496 12.04099511 -28.8125 7.6875 C-20.73579715 -0.03023828 -10.76950277 -0.42050119 0 0 Z " fill="#F7F7F7" transform="translate(871,160)"/>
<path d="M0 0 C3.0625 1.375 3.0625 1.375 5 4 C5.84859343 8.56118969 5.79409895 12.48399291 3.625 16.625 C-0.53206937 18.80251253 -4.42126359 18.82846281 -9 18 C-12.125 16.0625 -12.125 16.0625 -14 13 C-14.67458763 9.84068124 -14.71214756 7.15463713 -14 4 C-10.37016143 -0.80075424 -5.59019738 -0.95023247 0 0 Z " fill="#050505" transform="translate(624,91)"/>
<path d="M0 0 C2.5 1.0234375 2.5 1.0234375 5 2.375 C8.28110632 4.12834119 11.52288422 5.67124504 15 7 C14.67 7.66 14.34 8.32 14 9 C11.17537198 9.37741583 8.39982772 9.65357617 5.5625 9.875 C-2.85502552 10.6643242 -9.67557481 12.33173765 -16.9375 16.8125 C-17.618125 17.204375 -18.29875 17.59625 -19 18 C-19.99 17.67 -20.98 17.34 -22 17 C-19.29143377 14.14633998 -16.55502375 11.32100971 -13.8125 8.5 C-13.04357422 7.68917969 -12.27464844 6.87835938 -11.48242188 6.04296875 C-10.35610352 4.89248047 -10.35610352 4.89248047 -9.20703125 3.71875 C-8.5210083 3.00654297 -7.83498535 2.29433594 -7.12817383 1.56054688 C-4.51485238 -0.35574895 -3.17362966 -0.39302116 0 0 Z " fill="#F8F8F8" transform="translate(197,41)"/>
<path d="M0 0 C0.66 0.33 1.32 0.66 2 1 C1.30777344 1.68320313 0.61554688 2.36640625 -0.09765625 3.0703125 C-2.15713753 5.12471938 -4.14876518 7.22913234 -6.12109375 9.3671875 C-7.22633583 10.53667259 -8.33180771 11.70594055 -9.4375 12.875 C-10.25831055 13.78378906 -10.25831055 13.78378906 -11.09570312 14.7109375 C-12.6623595 16.34248497 -14.11482824 17.74942634 -16 19 C-20.5933603 19.06622145 -24.63485466 17.12490478 -28.875 15.4375 C-30.02742188 14.98246094 -31.17984375 14.52742187 -32.3671875 14.05859375 C-33.23601562 13.70925781 -34.10484375 13.35992187 -35 13 C-34.67 12.34 -34.34 11.68 -34 11 C-31.92853549 10.64976684 -29.84039192 10.39699963 -27.75 10.1875 C-18.76320338 9.02407169 -10.6119713 6.26600772 -2.8125 1.625 C-1.4203125 0.820625 -1.4203125 0.820625 0 0 Z " fill="#F1F1F1" transform="translate(141,237)"/>
<path d="M0 0 C0.33 0 0.66 0 1 0 C1.00586624 0.9683075 1.01173248 1.93661499 1.01777649 2.93426514 C1.07497574 12.05719183 1.1477226 21.17987952 1.23571491 30.30256271 C1.28045309 34.99270665 1.31970156 39.68276302 1.34643555 44.37304688 C1.37243421 48.89897751 1.41281207 53.42457182 1.46318626 57.95029449 C1.47987829 59.67741973 1.49137801 61.40460316 1.49761391 63.13179779 C1.50722977 65.55013838 1.53525773 67.96761402 1.56762695 70.38574219 C1.56619186 71.10071869 1.56475677 71.81569519 1.5632782 72.55233765 C1.64076643 76.64240933 2.12161821 79.02169945 5 82 C2.625 81.6875 2.625 81.6875 0 81 C-2.35078429 77.47382356 -2.24370599 76.04835119 -2.22705078 71.8762207 C-2.22689972 70.61513992 -2.22674866 69.35405914 -2.22659302 68.05476379 C-2.21637976 66.67843468 -2.20594777 65.30210717 -2.1953125 63.92578125 C-2.19158172 62.51759542 -2.18873506 61.109407 -2.18673706 59.70121765 C-2.17910564 55.9972719 -2.15946148 52.29348332 -2.1373291 48.58959961 C-2.11686003 44.80910366 -2.10773308 41.02858228 -2.09765625 37.24804688 C-2.07621504 29.83195964 -2.04208513 22.41600186 -2 15 C-1.67 15 -1.34 15 -1 15 C-0.67 10.05 -0.34 5.1 0 0 Z " fill="#292929" transform="translate(338,110)"/>
<path d="M0 0 C1.65766798 1.65766798 1.21049503 3.60346405 1.25 5.875 C1.28867187 7.20144531 1.28867187 7.20144531 1.328125 8.5546875 C0.92915145 11.52799036 0.34920272 12.19587813 -2 14 C-4.22099304 14.36076355 -4.22099304 14.36076355 -6.83862305 14.34057617 C-7.8194133 14.34034958 -8.80020355 14.34012299 -9.81071472 14.33988953 C-10.86704605 14.32440567 -11.92337738 14.30892181 -13.01171875 14.29296875 C-14.09508011 14.28872391 -15.17844147 14.28447906 -16.29463196 14.28010559 C-19.75917277 14.26329569 -23.22313462 14.22563848 -26.6875 14.1875 C-29.03449682 14.17245619 -31.38150274 14.15876726 -33.72851562 14.14648438 C-39.48587505 14.11338461 -45.24289617 14.06316205 -51 14 C-51 13.67 -51 13.34 -51 13 C-50.14222458 12.96574669 -50.14222458 12.96574669 -49.26712036 12.93080139 C-43.3300284 12.69282385 -37.39322208 12.4484987 -31.45654297 12.20043945 C-29.23916232 12.10863086 -27.02171341 12.01845614 -24.80419922 11.92993164 C-21.62187768 11.80261033 -18.43984569 11.66946806 -15.2578125 11.53515625 C-14.26194122 11.49656998 -13.26606995 11.4579837 -12.24002075 11.41822815 C-10.85881546 11.35827919 -10.85881546 11.35827919 -9.44970703 11.29711914 C-8.23059128 11.24715538 -8.23059128 11.24715538 -6.98684692 11.19618225 C-4.92674756 11.11219067 -4.92674756 11.11219067 -3 10 C-3 7.69 -3 5.38 -3 3 C-5.64 2.67 -8.28 2.34 -11 2 C-6.95807022 -0.69461986 -4.7948504 -0.23200889 0 0 Z " fill="#1F1F1F" transform="translate(393,180)"/>
<path d="M0 0 C0.33 0 0.66 0 1 0 C1.01030746 0.69491043 1.02061493 1.38982086 1.03123474 2.10578918 C1.12919919 8.65362067 1.23171217 15.20136328 1.33933926 21.74904346 C1.39451122 25.11529613 1.44792197 28.48155757 1.49731445 31.84790039 C1.55496637 35.71769614 1.61867568 39.58735144 1.68359375 43.45703125 C1.70030624 44.66647903 1.71701874 45.87592682 1.73423767 47.12202454 C1.75418289 48.24296005 1.77412811 49.36389557 1.79467773 50.51879883 C1.81799416 52.00105705 1.81799416 52.00105705 1.84178162 53.51325989 C1.90213783 56.13199956 1.90213783 56.13199956 3 59 C6.63 59.33 10.26 59.66 14 60 C14 59.34 14 58.68 14 58 C14.99 58 15.98 58 17 58 C17.33 56.68 17.66 55.36 18 54 C18.33 55.98 18.66 57.96 19 60 C15.62533835 62.02804186 12.91110976 62.32611113 9 62.375 C7.96875 62.40335938 6.9375 62.43171875 5.875 62.4609375 C2.23114091 61.87673183 1.26683927 60.86877725 -1 58 C-1.4430542 55.31707764 -1.4430542 55.31707764 -1.36230469 52.22167969 C-1.33182037 50.48032745 -1.33182037 50.48032745 -1.30072021 48.70379639 C-1.25820129 47.45576233 -1.21568237 46.20772827 -1.171875 44.921875 C-1.14401917 43.64016418 -1.11616333 42.35845337 -1.08746338 41.03790283 C-1.01333282 37.63754263 -0.91478179 34.23831533 -0.81109619 30.83874512 C-0.70954137 27.36680791 -0.63114228 23.89435595 -0.55078125 20.421875 C-0.3898207 13.61390149 -0.20304969 6.80684463 0 0 Z " fill="#1D1D1D" transform="translate(613,133)"/>
<path d="M0 0 C0.99 0.33 1.98 0.66 3 1 C-10.8973384 17.67680608 -10.8973384 17.67680608 -17 18.3125 C-20 18 -20 18 -21.8125 16.875 C-23.42228269 14.33323785 -23.67109009 11.9601892 -24 9 C-23.34 9 -22.68 9 -22 9 C-21.608125 9.825 -21.21625 10.65 -20.8125 11.5 C-20.214375 12.325 -19.61625 13.15 -19 14 C-15.37400578 14.41725678 -15.37400578 14.41725678 -12 14 C-11.79375 13.46375 -11.5875 12.9275 -11.375 12.375 C-9.46749574 9.08021991 -6.95180616 6.40636372 -4 4 C-3.34 4 -2.68 4 -2 4 C-1.34 2.68 -0.68 1.36 0 0 Z " fill="#282828" transform="translate(161,89)"/>
<path d="M0 0 C4.875 0.875 4.875 0.875 6 2 C6.49794072 6.48146645 6.74414491 10.57935971 4.625 14.625 C0.46793063 16.80251253 -3.42126359 16.82846281 -8 16 C-11.125 14.0625 -11.125 14.0625 -13 11 C-13.3825413 7.94987073 -13.29944435 5.05433232 -13 2 C-10.90217213 4.09782787 -10.3490604 5.3799207 -9.375 8.125 C-8.98441406 9.21167969 -8.98441406 9.21167969 -8.5859375 10.3203125 C-8.29589844 11.15175781 -8.29589844 11.15175781 -8 12 C-3.20061268 13.08777852 -3.20061268 13.08777852 1.4375 11.9375 C3.24961653 10.02501229 3.24961653 10.02501229 3.4375 7.0625 C2.96903694 3.78325857 2.21663014 2.40134932 0 0 Z " fill="#1C1C1C" transform="translate(623,93)"/>
<path d="M0 0 C-3.75457477 2.50304984 -6.71565098 2.28870257 -11.0625 2.265625 C-12.24404663 2.26849518 -12.24404663 2.26849518 -13.44946289 2.27142334 C-15.11377278 2.27278347 -16.77809334 2.26909899 -18.44238281 2.26074219 C-20.99047669 2.25004 -23.53786556 2.26064301 -26.0859375 2.2734375 C-27.70312656 2.27211587 -29.32031517 2.26955342 -30.9375 2.265625 C-31.70006104 2.26967346 -32.46262207 2.27372192 -33.24829102 2.27789307 C-37.03498674 2.24430937 -38.77148266 2.1523449 -42 0 C-27.90819047 -1.3307611 -14.08647618 -1.21547406 0 0 Z " fill="#2C2C2C" transform="translate(180,20)"/>
<path d="M0 0 C0.515625 0.2475 1.03125 0.495 1.5625 0.75 C-0.50266289 2.96766722 -2.49028266 4.45714158 -5.125 5.9375 C-9.21361265 8.41772459 -12.30822751 11.44925319 -15.6171875 14.875 C-17.75832058 17.08045896 -19.86401707 19.05885407 -22.4375 20.75 C-23.4275 20.42 -24.4175 20.09 -25.4375 19.75 C-22.92944527 17.15399874 -20.40389796 14.57568814 -17.875 12 C-17.17052734 11.27039063 -16.46605469 10.54078125 -15.74023438 9.7890625 C-5.52565358 -0.5667337 -5.52565358 -0.5667337 0 0 Z " fill="#161616" transform="translate(206.4375,96.25)"/>
<path d="M0 0 C0.66 0 1.32 0 2 0 C2.02471188 5.07201786 2.04286564 10.14400071 2.05493164 15.21606445 C2.05996158 16.9416566 2.06678626 18.66724448 2.07543945 20.39282227 C2.08756361 22.8725693 2.09324169 25.35226 2.09765625 27.83203125 C2.10281754 28.60400345 2.10797882 29.37597565 2.11329651 30.17134094 C2.11363318 33.3830228 2.02326578 35.93020266 1 39 C0.65179959 40.66362417 0.31595508 42.32995171 0 44 C-0.66 44 -1.32 44 -2 44 C-1.84660156 42.88753906 -1.69320313 41.77507812 -1.53515625 40.62890625 C-0.66146546 32.76568916 -0.63202875 24.84013105 -0.4375 16.9375 C-0.39422681 15.29230856 -0.35060998 13.64712611 -0.30664062 12.00195312 C-0.20046162 8.00139494 -0.09894483 4.00074337 0 0 Z " fill="#464646" transform="translate(495,126)"/>
<path d="M0 0 C0.99 0.33 1.98 0.66 3 1 C0.10736733 3.94230144 -2.79196934 6.87781592 -5.69750977 9.80737305 C-6.68372218 10.80360433 -7.66812729 11.80162829 -8.65063477 12.80151367 C-10.06828851 14.24359733 -11.49245115 15.67897564 -12.91796875 17.11328125 C-13.77156982 17.97735596 -14.6251709 18.84143066 -15.50463867 19.73168945 C-17.88130758 21.8921073 -20.19049292 23.46214139 -23 25 C-22.52794881 20.75153925 -20.11122478 18.73180712 -17 16 C-16.34 16 -15.68 16 -15 16 C-15 15.34 -15 14.68 -15 14 C-14.34 14 -13.68 14 -13 14 C-13 13.34 -13 12.68 -13 12 C-12.34 12 -11.68 12 -11 12 C-11 11.34 -11 10.68 -11 10 C-10.34 10 -9.68 10 -9 10 C-9 9.34 -9 8.68 -9 8 C-8.34 8 -7.68 8 -7 8 C-7 7.34 -7 6.68 -7 6 C-6.34 6 -5.68 6 -5 6 C-5 5.34 -5 4.68 -5 4 C-2.6875 1.8125 -2.6875 1.8125 0 0 Z " fill="#1F1F1F" transform="translate(142,171)"/>
<path d="M0 0 C2.1184082 0.41430664 2.1184082 0.41430664 4 1 C3.56655273 1.42821045 3.13310547 1.8564209 2.68652344 2.29760742 C0.70499954 4.25821464 -1.27252059 6.2228139 -3.25 8.1875 C-3.93191406 8.86103516 -4.61382812 9.53457031 -5.31640625 10.22851562 C-8.78493102 13.6802029 -11.94753055 17.17041103 -15 21 C-15.99 21.66 -16.98 22.32 -18 23 C-18.33 22.01 -18.66 21.02 -19 20 C-18.34 20 -17.68 20 -17 20 C-16.60167969 19.12601563 -16.60167969 19.12601563 -16.1953125 18.234375 C-14.09849493 14.31483365 -10.99623605 11.25322316 -8 8 C-7.30777344 7.23042969 -6.61554688 6.46085937 -5.90234375 5.66796875 C-5.21269531 4.93191406 -4.52304688 4.19585937 -3.8125 3.4375 C-3.17957031 2.75558594 -2.54664062 2.07367188 -1.89453125 1.37109375 C-1.26933594 0.91863281 -0.64414063 0.46617188 0 0 Z " fill="#101010" transform="translate(73,50)"/>
<path d="M0 0 C0.66 0.99 1.32 1.98 2 3 C1.34 3.66 0.68 4.32 0 5 C-0.66 4.34 -1.32 3.68 -2 3 C-4.9877982 2.58801599 -6.43647647 2.59434937 -8.9128418 4.37695312 C-9.79709839 5.31958008 -9.79709839 5.31958008 -10.69921875 6.28125 C-11.67665039 7.29638672 -11.67665039 7.29638672 -12.67382812 8.33203125 C-13.33833984 9.04746094 -14.00285156 9.76289063 -14.6875 10.5 C-16.02037751 11.91038516 -17.35740943 13.31685966 -18.69921875 14.71875 C-19.28533936 15.34716797 -19.87145996 15.97558594 -20.4753418 16.62304688 C-22 18 -22 18 -24 18 C-22.6511018 14.99088776 -21.14834287 12.90083637 -18.8125 10.58203125 C-18.19632813 9.96779297 -17.58015625 9.35355469 -16.9453125 8.72070312 C-16.30335938 8.09099609 -15.66140625 7.46128906 -15 6.8125 C-14.35804688 6.17119141 -13.71609375 5.52988281 -13.0546875 4.86914062 C-6.49906461 -1.62476615 -6.49906461 -1.62476615 0 0 Z " fill="#121212" transform="translate(178,189)"/>
<path d="M0 0 C0.66 0.33 1.32 0.66 2 1 C1.84015625 1.52464844 1.6803125 2.04929688 1.515625 2.58984375 C0.86889362 5.612823 0.79219162 8.47196356 0.75 11.5625 C0.72421875 12.69816406 0.6984375 13.83382812 0.671875 15.00390625 C1.03814107 18.34826429 1.56250042 18.88963852 4 21 C4 21.99 4 22.98 4 24 C5.98 24.33 7.96 24.66 10 25 C9.01 25.66 8.02 26.32 7 27 C3.42895561 25.12050295 1.45255699 23.82946843 0 20 C-0.66 20 -1.32 20 -2 20 C-2.99737206 12.54666556 -3.42993347 6.85986695 0 0 Z " fill="#0F0F0F" transform="translate(826,167)"/>
<path d="M0 0 C1.875 1.4375 1.875 1.4375 3 3 C3 3.99 3 4.98 3 6 C2.01 5.67 1.02 5.34 0 5 C0 4.34 0 3.68 0 3 C-3.16245541 1.9458482 -5.86948218 1.68724328 -9.1875 1.4375 C-10.81751953 1.31181641 -10.81751953 1.31181641 -12.48046875 1.18359375 C-13.31191406 1.12300781 -14.14335938 1.06242187 -15 1 C-15 1.66 -15 2.32 -15 3 C-15.66 3 -16.32 3 -17 3 C-17 4.65 -17 6.3 -17 8 C-17.99 7.67 -18.98 7.34 -20 7 C-19.67 5.35 -19.34 3.7 -19 2 C-18.01 1.67 -17.02 1.34 -16 1 C-16 0.34 -16 -0.32 -16 -1 C-10.4119467 -2.86268443 -5.36784734 -2.31793408 0 0 Z " fill="#181818" transform="translate(750,120)"/>
<path d="M0 0 C2.625 2 2.625 2 4 4 C3.34 4.66 2.68 5.32 2 6 C1.1646875 5.2575 1.1646875 5.2575 0.3125 4.5 C-2.45122422 2.70731402 -3.76822531 2.41993788 -7 3 C-9.7772785 5.67808998 -10.47755558 8.23840019 -11 12 C-11.309375 11.360625 -11.61875 10.72125 -11.9375 10.0625 C-12.8345163 8.06389179 -12.8345163 8.06389179 -14 7 C-14.04063832 5.33382885 -14.042721 3.66611905 -14 2 C-9.48260034 -0.61423592 -5.10608847 -0.72944121 0 0 Z " fill="#1A1A1A" transform="translate(540,119)"/>
<path d="M0 0 C4.98775046 8.90669725 5.1855994 19.16480268 3 29 C2.34 28.67 1.68 28.34 1 28 C1 21.07 1 14.14 1 7 C0.34 6.67 -0.32 6.34 -1 6 C-0.67 4.02 -0.34 2.04 0 0 Z " fill="#2F2F2F" transform="translate(247,114)"/>
<path d="M0 0 C1.32 0.33 2.64 0.66 4 1 C3.52363742 5.19199071 2.96686272 7.92325347 0 11 C-3.54177325 13.31735512 -6.58825861 13.20823483 -10.75 13.125 C-11.92046875 13.10695312 -13.0909375 13.08890625 -14.296875 13.0703125 C-15.63492187 13.03550781 -15.63492187 13.03550781 -17 13 C-16.67 12.34 -16.34 11.68 -16 11 C-13.25283336 10.64127907 -10.5290723 10.55594291 -7.76171875 10.44140625 C-4.62887213 9.94068253 -3.23033418 9.23548507 -1 7 C-0.18685089 3.39534252 -0.18685089 3.39534252 0 0 Z " fill="#151515" transform="translate(432,182)"/>
<path d="M0 0 C3.33492277 0.0524809 4.87799869 0.13564211 7.8125 1.8125 C9.81791222 5.45870405 9.46270946 8.18435813 9.1875 12.3125 C8.5275 11.9825 7.8675 11.6525 7.1875 11.3125 C6.78020772 8.99093403 6.44311323 6.6556213 6.1875 4.3125 C5.5275 4.3125 4.8675 4.3125 4.1875 4.3125 C4.1875 3.6525 4.1875 2.9925 4.1875 2.3125 C0.83316891 3.26183899 -2.50496505 4.20998835 -5.8125 5.3125 C-6.1425 6.9625 -6.4725 8.6125 -6.8125 10.3125 C-8.42170937 7.09408126 -6.8874168 4.59696801 -5.8125 1.3125 C-4.16284831 -0.33715169 -2.2648645 0.06300502 0 0 Z " fill="#292929" transform="translate(587.8125,118.6875)"/>
<path d="M0 0 C7.86521737 1.54463637 13.73538864 7.36853786 18.8828125 13.16796875 C19.25148437 13.77253906 19.62015625 14.37710938 20 15 C19.67 15.99 19.34 16.98 19 18 C18.34 17.67 17.68 17.34 17 17 C17 16.34 17 15.68 17 15 C16.34 15 15.68 15 15 15 C14.46375 14.113125 13.9275 13.22625 13.375 12.3125 C10.32295354 7.45225998 5.34147201 4.78049067 0 3 C0 2.01 0 1.02 0 0 Z " fill="#1B1B1B" transform="translate(226,96)"/>
<path d="M0 0 C1.32 1.32 2.64 2.64 4 4 C-0.29 4 -4.58 4 -9 4 C-9.66 5.98 -10.32 7.96 -11 10 C-13 8 -13 8 -13.4375 5.5625 C-13 3 -13 3 -10.625 1.25 C-9.75875 0.8375 -8.8925 0.425 -8 0 C-5.02898609 -1.48550695 -3.16565278 -0.82306972 0 0 Z " fill="#292929" transform="translate(460,118)"/>
<path d="M0 0 C2.875 2.5 2.875 2.5 5 5 C4.34 5.66 3.68 6.32 3 7 C2.34 6.01 1.68 5.02 1 4 C-1.43693311 3.63583953 -1.43693311 3.63583953 -4.125 3.8125 C-5.49011719 3.85310547 -5.49011719 3.85310547 -6.8828125 3.89453125 C-7.58148437 3.92933594 -8.28015625 3.96414062 -9 4 C-9.28875 4.639375 -9.5775 5.27875 -9.875 5.9375 C-11 8 -11 8 -13 9 C-13.125 6.125 -13.125 6.125 -13 3 C-9.56521157 -0.43478843 -4.69021998 -0.5862775 0 0 Z " fill="#1A1A1A" transform="translate(623,118)"/>
<path d="M0 0 C2.0625 0.4375 2.0625 0.4375 4 1 C2.68 1.33 1.36 1.66 0 2 C0 2.66 0 3.32 0 4 C-7.3549914 6.44408524 -14.2501365 8.47458553 -22 9 C-19.77115271 6.4511131 -18.07055079 5.48449275 -14.8046875 4.6484375 C-13.60779297 4.33132813 -13.60779297 4.33132813 -12.38671875 4.0078125 C-11.55785156 3.79898437 -10.72898438 3.59015625 -9.875 3.375 C-8.22583881 2.94809849 -6.57735939 2.51855151 -4.9296875 2.0859375 C-4.19991699 1.9007959 -3.47014648 1.7156543 -2.71826172 1.52490234 C-0.98631835 1.14287513 -0.98631835 1.14287513 0 0 Z " fill="#2D2D2D" transform="translate(198,254)"/>
<path d="M0 0 C0.99 0.66 1.98 1.32 3 2 C-1.62 6.62 -6.24 11.24 -11 16 C-11.66 15.67 -12.32 15.34 -13 15 C-11.40907948 10.86360664 -8.39525082 7.76786752 -5 5 C-4.34 5 -3.68 5 -3 5 C-2.690625 4.360625 -2.38125 3.72125 -2.0625 3.0625 C-1 1 -1 1 0 0 Z " fill="#171717" transform="translate(175,221)"/>
<path d="M0 0 C6.54365601 1.43960432 11.53035276 5.06674574 16 10 C16 10.66 16 11.32 16 12 C13 12 13 12 10.5 9.625 C9.675 8.75875 8.85 7.8925 8 7 C5.32917896 5.21945264 2.95812156 4.16767956 0 3 C-0.33 2.67 -0.66 2.34 -1 2 C-2.51928038 1.92820036 -4.04167482 1.91607993 -5.5625 1.9375 C-6.80193359 1.95103516 -6.80193359 1.95103516 -8.06640625 1.96484375 C-9.02353516 1.98224609 -9.02353516 1.98224609 -10 2 C-6.22486447 -0.51675702 -4.4906709 -0.36808778 0 0 Z " fill="#1E1E1E" transform="translate(784,117)"/>
<path d="M0 0 C7.28358209 -0.35820896 7.28358209 -0.35820896 10 1 C11.62628339 4.25256678 11.65569407 7.49591447 11 11 C9.125 13.5 9.125 13.5 7 15 C6.34 15 5.68 15 5 15 C5 14.01 5 13.02 5 12 C5.515625 11.54625 6.03125 11.0925 6.5625 10.625 C7.036875 10.08875 7.51125 9.5525 8 9 C7.75794651 5.68181015 7.75794651 5.68181015 6 3 C3.67182036 2.63239269 1.3381615 2.29758419 -1 2 C-0.67 1.34 -0.34 0.68 0 0 Z " fill="#1F1F1F" transform="translate(224,240)"/>
<path d="M0 0 C0.66 0.33 1.32 0.66 2 1 C0.6415798 4.04332765 -0.88463024 6.12309151 -3.2578125 8.453125 C-3.88300781 9.071875 -4.50820312 9.690625 -5.15234375 10.328125 C-5.80332031 10.96234375 -6.45429687 11.5965625 -7.125 12.25 C-7.78371094 12.8996875 -8.44242188 13.549375 -9.12109375 14.21875 C-10.74296643 15.81711727 -12.3693281 17.41061897 -14 19 C-14.99 18.67 -15.98 18.34 -17 18 C-16.58113525 17.58637207 -16.16227051 17.17274414 -15.73071289 16.74658203 C-13.83870591 14.87533169 -11.95056815 13.00022415 -10.0625 11.125 C-9.40314453 10.47402344 -8.74378906 9.82304688 -8.06445312 9.15234375 C-7.43603516 8.52714844 -6.80761719 7.90195313 -6.16015625 7.2578125 C-5.57886963 6.6817627 -4.99758301 6.10571289 -4.39868164 5.51220703 C-2.90048064 4.03347525 -2.90048064 4.03347525 -2 2 C-1.34 2 -0.68 2 0 2 C0 1.34 0 0.68 0 0 Z " fill="#161616" transform="translate(114,100)"/>
<path d="M0 0 C0.825 0.66 1.65 1.32 2.5 2 C6.4781731 4.63330607 9.29401891 4.5975849 14 4 C16.96731398 2.16343011 16.96731398 2.16343011 19 0 C19.33 0.99 19.66 1.98 20 3 C19.34 3 18.68 3 18 3 C18 3.66 18 4.32 18 5 C14.64802157 7.23465229 13.42208754 7.27108649 9.5 7.25 C8.06140625 7.25773438 8.06140625 7.25773438 6.59375 7.265625 C4 7 4 7 1 5 C0.3125 2.375 0.3125 2.375 0 0 Z " fill="#141414" transform="translate(552,188)"/>
<path d="M0 0 C0.33 0 0.66 0 1 0 C1.08096803 1.45742463 1.13917774 2.91612807 1.1875 4.375 C1.23970703 5.59316406 1.23970703 5.59316406 1.29296875 6.8359375 C1.19628906 7.55007812 1.09960938 8.26421875 1 9 C-2.45854008 11.30569339 -3.97937508 11.29761619 -8.0625 11.3125 C-9.65771484 11.33763672 -9.65771484 11.33763672 -11.28515625 11.36328125 C-12.18105469 11.24339844 -13.07695313 11.12351563 -14 11 C-14.66 10.01 -15.32 9.02 -16 8 C-14.28089049 8 -12.56080673 8.02148228 -10.84375 8.10546875 C-10.0703125 8.13253906 -9.296875 8.15960938 -8.5 8.1875 C-7.7265625 8.22230469 -6.953125 8.25710937 -6.15625 8.29296875 C-3.44545307 7.92465395 -2.63761949 7.14969246 -1 5 C-0.27802838 2.39388923 -0.27802838 2.39388923 0 0 Z " fill="#262626" transform="translate(805,184)"/>
<path d="M0 0 C4.75 1.875 4.75 1.875 7 3 C7 3.66 7 4.32 7 5 C7.66 5 8.32 5 9 5 C9 5.66 9 6.32 9 7 C9.66 7 10.32 7 11 7 C11 7.66 11 8.32 11 9 C11.639375 9.268125 12.27875 9.53625 12.9375 9.8125 C15 11 15 11 16 14 C13 14 13 14 11.46606445 12.82250977 C10.937146 12.28424561 10.40822754 11.74598145 9.86328125 11.19140625 C9.28642578 10.60939453 8.70957031 10.02738281 8.11523438 9.42773438 C7.52033203 8.81220703 6.92542969 8.19667969 6.3125 7.5625 C5.70599609 6.95083984 5.09949219 6.33917969 4.47460938 5.70898438 C0 1.1538421 0 1.1538421 0 0 Z " fill="#1A1A1A" transform="translate(181,146)"/>
<path d="M0 0 C0.66 0.66 1.32 1.32 2 2 C-2.95 6.95 -7.9 11.9 -13 17 C-13.33 16.01 -13.66 15.02 -14 14 C-12.85546875 12.17578125 -12.85546875 12.17578125 -11.1875 10.3125 C-10.64480469 9.68988281 -10.10210937 9.06726563 -9.54296875 8.42578125 C-8 7 -8 7 -6 7 C-6 6.34 -6 5.68 -6 5 C-4.04072937 3.2856382 -2.04119788 1.61594832 0 0 Z " fill="#1C1C1C" transform="translate(127,105)"/>
<path d="M0 0 C4.00075546 1.33358515 5.0777441 3.85916174 7.125 7.3125 C7.66447266 8.18551758 7.66447266 8.18551758 8.21484375 9.07617188 C9.97547631 11.98748002 11.4489278 14.6184206 12 18 C11.01 18 10.02 18 9 18 C8.60167969 17.26394531 8.20335937 16.52789062 7.79296875 15.76953125 C7.26316406 14.79371094 6.73335938 13.81789063 6.1875 12.8125 C5.40439453 11.36810547 5.40439453 11.36810547 4.60546875 9.89453125 C3.54958794 7.99086293 2.44859359 6.11141174 1.30078125 4.26171875 C0 2 0 2 0 0 Z " fill="#1B1B1B" transform="translate(261,73)"/>
<path d="M0 0 C2.16925149 2.16925149 2.36735601 3.0723252 3.125 5.9375 C4.05059617 8.60767533 4.52578618 9.71359363 6.97265625 11.19140625 C9.4244609 12.12557921 9.4244609 12.12557921 13 13 C13 13.33 13 13.66 13 14 C5.92798453 14.59932334 5.92798453 14.59932334 2 12.0625 C-0.68514232 7.95087582 -0.46788961 4.77247406 0 0 Z " fill="#2A2A2A" transform="translate(610,95)"/>
<path d="M0 0 C1.58246707 -0.08153933 3.16616273 -0.13943557 4.75 -0.1875 C6.07257813 -0.23970703 6.07257813 -0.23970703 7.421875 -0.29296875 C10.44671583 0.05076316 11.75583602 1.00227459 14 3 C13.67 4.32 13.34 5.64 13 7 C10 6 10 6 8 3 C5.80545319 2.42006301 5.80545319 2.42006301 3.375 2.3125 C2.55773437 2.24675781 1.74046875 2.18101563 0.8984375 2.11328125 C0.27195312 2.07589844 -0.35453125 2.03851563 -1 2 C-0.67 1.34 -0.34 0.68 0 0 Z M-3 2 C-2.34 2 -1.68 2 -1 2 C-1.33 2.99 -1.66 3.98 -2 5 C-2.33 4.01 -2.66 3.02 -3 2 Z " fill="#2D2D2D" transform="translate(412,88)"/>
<path d="M0 0 C-1.75 4.875 -1.75 4.875 -4 6 C-4.33 4.68 -4.66 3.36 -5 2 C-2 0 -2 0 0 0 Z M-6 6 C-5.34 6.33 -4.68 6.66 -4 7 C-5.28062485 8.7074998 -6.61767557 10.37373596 -8 12 C-8.66 12 -9.32 12 -10 12 C-10 12.66 -10 13.32 -10 14 C-10.66 14 -11.32 14 -12 14 C-12 14.66 -12 15.32 -12 16 C-12.66 16 -13.32 16 -14 16 C-14 16.66 -14 17.32 -14 18 C-14.66 18 -15.32 18 -16 18 C-16.33 18.66 -16.66 19.32 -17 20 C-17 17 -17 17 -14.59375 14.30078125 C-13.5700032 13.29697757 -12.5383946 12.30114351 -11.5 11.3125 C-10.97535156 10.80138672 -10.45070312 10.29027344 -9.91015625 9.76367188 C-8.61339096 8.50227292 -7.30753883 7.25022788 -6 6 Z " fill="#313131" transform="translate(146,234)"/>
<path d="M0 0 C0.99 0.33 1.98 0.66 3 1 C-0.29896656 6.85300518 -4.0637586 11.44784655 -9 16 C-9.33 15.01 -9.66 14.02 -10 13 C-8.63671875 10.95703125 -8.63671875 10.95703125 -6.6875 8.8125 C-6.05199219 8.09707031 -5.41648438 7.38164062 -4.76171875 6.64453125 C-3 5 -3 5 -1 5 C-0.67 3.35 -0.34 1.7 0 0 Z " fill="#111111" transform="translate(243,149)"/>
<path d="M0 0 C0.66 0.66 1.32 1.32 2 2 C-2.62 6.62 -7.24 11.24 -12 16 C-12.66 15.34 -13.32 14.68 -14 14 C-9.38 9.38 -4.76 4.76 0 0 Z " fill="#171717" transform="translate(160,153)"/>
<path d="M0 0 C0.33 0.99 0.66 1.98 1 3 C0.67 3.66 0.34 4.32 0 5 C-0.66 5 -1.32 5 -2 5 C-2.2475 5.5775 -2.495 6.155 -2.75 6.75 C-4.16683317 9.3002997 -5.87627537 11.01785701 -8 13 C-8.99 12.67 -9.98 12.34 -11 12 C-7.49102731 7.81576108 -3.91939465 3.80411834 0 0 Z " fill="#1E1E1E" transform="translate(172,125)"/>
<path d="M0 0 C1 1 1 1 1.09765625 3.28515625 C1.08605469 4.20167969 1.07445312 5.11820313 1.0625 6.0625 C1.05347656 6.98160156 1.04445313 7.90070313 1.03515625 8.84765625 C1.02355469 9.55792969 1.01195312 10.26820313 1 11 C0.34 10.67 -0.32 10.34 -1 10 C-1.73075648 7.6859378 -2.40138258 5.35171131 -3 3 C-5.64 2.67 -8.28 2.34 -11 2 C-6.95807022 -0.69461986 -4.7948504 -0.23200889 0 0 Z " fill="#4D4D4D" transform="translate(393,180)"/>
<path d="M0 0 C0.99 0.33 1.98 0.66 3 1 C1.29556344 2.70443656 -0.409296 4.40839804 -2.1171875 6.109375 C-3.25812128 7.25504295 -4.39084903 8.40907515 -5.5078125 9.578125 C-6.63632171 10.753937 -7.81421522 11.88197435 -9 13 C-9.66 13 -10.32 13 -11 13 C-9.46356148 9.31930113 -7.21849055 7.01224796 -4.375 4.25 C-3.55773437 3.45078125 -2.74046875 2.6515625 -1.8984375 1.828125 C-0.95871094 0.92320313 -0.95871094 0.92320313 0 0 Z " fill="#161616" transform="translate(95,120)"/>
<path d="M0 0 C0.66 0.33 1.32 0.66 2 1 C1.57589844 1.41362793 1.15179688 1.82725586 0.71484375 2.25341797 C-1.19527333 4.12207921 -3.09768811 5.99839503 -5 7.875 C-5.66773438 8.52597656 -6.33546875 9.17695312 -7.0234375 9.84765625 C-7.65507812 10.47285156 -8.28671875 11.09804688 -8.9375 11.7421875 C-9.52402344 12.3182373 -10.11054688 12.89428711 -10.71484375 13.48779297 C-12.21586138 14.92324141 -12.21586138 14.92324141 -12 17 C-13.65 17.33 -15.3 17.66 -17 18 C-11.72898586 11.58930713 -5.90871848 5.81409488 0 0 Z " fill="#E2E2E2" transform="translate(192,41)"/>
<path d="M0 0 C0.33 0 0.66 0 1 0 C1 2.31 1 4.62 1 7 C4.26545761 8.88391785 7.28111761 9.49287967 11 10 C11 10.66 11 11.32 11 12 C8.3125 12.8125 8.3125 12.8125 5 13 C2.125 11.0625 2.125 11.0625 0 8 C-0.40931845 5.19176458 -0.24244413 2.86084074 0 0 Z " fill="#2F2F2F" transform="translate(269,169)"/>
<path d="M0 0 C0.66 0.33 1.32 0.66 2 1 C0.46781315 4.63061667 -1.7183144 6.9863773 -4.5 9.75 C-5.69109375 10.94882812 -5.69109375 10.94882812 -6.90625 12.171875 C-9 14 -9 14 -11 14 C-9.53417985 10.57719483 -7.61937745 8.43519517 -4.9375 5.875 C-2.08428067 3.22095 -2.08428067 3.22095 0 0 Z " fill="#171717" transform="translate(169,43)"/>
<path d="M0 0 C0.99 0 1.98 0 3 0 C4.33333333 2 5.66666667 4 7 6 C9.60024049 7.86310322 9.60024049 7.86310322 12 9 C11.34 9.66 10.68 10.32 10 11 C4.9451592 8.93211058 2.64434533 6.78016271 0 2 C0 1.34 0 0.68 0 0 Z " fill="#1F1F1F" transform="translate(648,183)"/>
<path d="M0 0 C-0.33 1.32 -0.66 2.64 -1 4 C-1.66 4 -2.32 4 -3 4 C-3 4.66 -3 5.32 -3 6 C-3.66 6 -4.32 6 -5 6 C-5 6.66 -5 7.32 -5 8 C-5.66 8 -6.32 8 -7 8 C-7 8.66 -7 9.32 -7 10 C-7.66 10 -8.32 10 -9 10 C-9.33 10.66 -9.66 11.32 -10 12 C-10 6.88980204 -8.41372457 5.6518914 -5 2 C-2 0 -2 0 0 0 Z " fill="#1E1E1E" transform="translate(218,179)"/>
<path d="M0 0 C0.66 0.33 1.32 0.66 2 1 C-0.36292656 3.52588702 -1.66462511 4.88820837 -5 6 C-7.39490986 6.06970052 -9.79167691 6.08448003 -12.1875 6.0625 C-13.45980469 6.05347656 -14.73210937 6.04445312 -16.04296875 6.03515625 C-17.50669922 6.01775391 -17.50669922 6.01775391 -19 6 C-19 5.67 -19 5.34 -19 5 C-15.37 5 -11.74 5 -8 5 C-8 4.34 -8 3.68 -8 3 C-6.865625 2.690625 -5.73125 2.38125 -4.5625 2.0625 C-1.21224901 1.37075469 -1.21224901 1.37075469 0 0 Z " fill="#272727" transform="translate(113,197)"/>
<path d="M0 0 C0.804375 1.11375 0.804375 1.11375 1.625 2.25 C3.91343409 5.14729125 3.91343409 5.14729125 7.1875 7.125 C10 9 10 9 11 12 C6.37727186 10.50441148 3.47630151 8.31828781 0 5 C-0.9375 2.75 -0.9375 2.75 -1 1 C-0.67 0.67 -0.34 0.34 0 0 Z " fill="#202020" transform="translate(453,183)"/>
<path d="M0 0 C10.55808656 3.07517084 10.55808656 3.07517084 15 5 C13.390625 6.1484375 13.390625 6.1484375 11 7 C7.984375 6.1015625 7.984375 6.1015625 4.75 4.625 C3.67234375 4.14289063 2.5946875 3.66078125 1.484375 3.1640625 C0.66453125 2.77992188 -0.1553125 2.39578125 -1 2 C-0.67 1.34 -0.34 0.68 0 0 Z " fill="#1A1A1A" transform="translate(105,264)"/>
<path d="M0 0 C1.32 0 2.64 0 4 0 C4.49230769 6.4 4.49230769 6.4 2 9.4375 C1.01 10.2109375 1.01 10.2109375 0 11 C-0.66 10.34 -1.32 9.68 -2 9 C-1.34 8.34 -0.68 7.68 0 7 C0.16677282 3.41656024 0.16677282 3.41656024 0 0 Z " fill="#222222" transform="translate(896,182)"/>
<path d="M0 0 C0.99 0 1.98 0 3 0 C1.50104329 3.81552617 -0.7986856 5.53745046 -4 8 C-4.33 8.66 -4.66 9.32 -5 10 C-5.66 10 -6.32 10 -7 10 C-7.33 10.66 -7.66 11.32 -8 12 C-8 8.06830895 -6.60580385 6.83572772 -4 4 C-3.34 4 -2.68 4 -2 4 C-2 3.34 -2 2.68 -2 2 C-1.34 2 -0.68 2 0 2 C0 1.34 0 0.68 0 0 Z " fill="#181818" transform="translate(141,72)"/>
<path d="M0 0 C0.99 0.33 1.98 0.66 3 1 C-3.15034169 8.48291572 -3.15034169 8.48291572 -7 11 C-7 7.22089522 -6.00296038 6.53893899 -3.5 3.8125 C-2.8503125 3.09707031 -2.200625 2.38164062 -1.53125 1.64453125 C-1.0259375 1.10183594 -0.520625 0.55914062 0 0 Z " fill="#272727" transform="translate(204,191)"/>
<path d="M0 0 C4.42857143 5.14285714 4.42857143 5.14285714 5 9 C7.97 9.495 7.97 9.495 11 10 C10.01 10.66 9.02 11.32 8 12 C4.34810059 10.07794768 2.63783943 8.77962946 1 5 C0.34 4.67 -0.32 4.34 -1 4 C-0.67 2.68 -0.34 1.36 0 0 Z " fill="#1B1B1B" transform="translate(825,182)"/>
<path d="M0 0 C4.29 1.65 8.58 3.3 13 5 C13 5.33 13 5.66 13 6 C4.09236234 6.45293073 4.09236234 6.45293073 0 3 C0 2.01 0 1.02 0 0 Z " fill="#2B2B2B" transform="translate(654,143)"/>
<path d="M0 0 C1.93681161 -0.08107583 3.8745934 -0.13922475 5.8125 -0.1875 C6.89144531 -0.22230469 7.97039062 -0.25710937 9.08203125 -0.29296875 C12 0 12 0 13.88671875 1.51171875 C14.25410156 2.00285156 14.62148438 2.49398437 15 3 C14.67 3.99 14.34 4.98 14 6 C13.67 5.34 13.34 4.68 13 4 C12.34 4 11.68 4 11 4 C11 3.34 11 2.68 11 2 C10.06027344 2.03480469 10.06027344 2.03480469 9.1015625 2.0703125 C7.87566406 2.09738281 7.87566406 2.09738281 6.625 2.125 C5.81289063 2.14820312 5.00078125 2.17140625 4.1640625 2.1953125 C2 2 2 2 0 0 Z " fill="#363636" transform="translate(338,92)"/>
<path d="M0 0 C2 1.8125 2 1.8125 4 4 C4 4.99 4 5.98 4 7 C4.66 7 5.32 7 6 7 C8 10 8 10 7.625 12.1875 C7.41875 12.785625 7.2125 13.38375 7 14 C5.82188197 12.42516875 4.65787174 10.83977627 3.5 9.25 C2.8503125 8.36828125 2.200625 7.4865625 1.53125 6.578125 C0 4 0 4 0 0 Z " fill="#1F1F1F" transform="translate(44,208)"/>
<path d="M0 0 C0.99 0.33 1.98 0.66 3 1 C1.38113585 2.67262717 -0.2452729 4.33795537 -1.875 6 C-2.77992188 6.928125 -3.68484375 7.85625 -4.6171875 8.8125 C-7 11 -7 11 -9 11 C-7.59155282 7.78475695 -5.89655214 5.67816132 -3.375 3.25 C-2.74335938 2.63640625 -2.11171875 2.0228125 -1.4609375 1.390625 C-0.73777344 0.70226562 -0.73777344 0.70226562 0 0 Z " fill="#141414" transform="translate(171,142)"/>
<path d="M0 0 C0.99 0.33 1.98 0.66 3 1 C2.06725891 2.12894876 1.12859878 3.25300876 0.1875 4.375 C-0.33457031 5.00148438 -0.85664063 5.62796875 -1.39453125 6.2734375 C-3 8 -3 8 -6 10 C-6.33 9.01 -6.66 8.02 -7 7 C-5.625 5.5 -5.625 5.5 -4 4 C-3.34 4 -2.68 4 -2 4 C-1.34 2.68 -0.68 1.36 0 0 Z " fill="#1E1E1E" transform="translate(161,89)"/>
<path d="M0 0 C0.66 0.33 1.32 0.66 2 1 C1.42618522 4.32812571 0.40619252 5.69842455 -2 8 C-2 8.66 -2 9.32 -2 10 C-2.66 10.66 -3.32 11.32 -4 12 C-4 12.66 -4 13.32 -4 14 C-4.99 13.67 -5.98 13.34 -7 13 C-6.21085079 11.39459341 -5.41858235 9.79071984 -4.625 8.1875 C-4.18414062 7.29417969 -3.74328125 6.40085937 -3.2890625 5.48046875 C-2 3 -2 3 0 0 Z " fill="#2C2C2C" transform="translate(48,79)"/>
<path d="M0 0 C4.62 0.99 9.24 1.98 14 3 C13.67 3.66 13.34 4.32 13 5 C11.58249437 4.88490339 10.16598831 4.75746342 8.75 4.625 C7.96109375 4.55539063 7.1721875 4.48578125 6.359375 4.4140625 C3.914123 3.98492887 2.15163097 3.21399362 0 2 C0 1.34 0 0.68 0 0 Z " fill="#2A2A2A" transform="translate(181,21)"/>
<path d="M0 0 C0.99 0 1.98 0 3 0 C4.5 2.1875 4.5 2.1875 6 5 C6.556875 5.928125 7.11375 6.85625 7.6875 7.8125 C8.120625 8.534375 8.55375 9.25625 9 10 C5.66670261 8.82884146 3.13594373 7.88352404 1 5 C0.3125 2.3125 0.3125 2.3125 0 0 Z " fill="#272727" transform="translate(700,185)"/>
<path d="M0 0 C0.66 0.66 1.32 1.32 2 2 C1.01 2.495 1.01 2.495 0 3 C0 2.01 0 1.02 0 0 Z M-5 1 C-2.525 1.99 -2.525 1.99 0 3 C-0.25561323 5.3431213 -0.59270772 7.67843403 -1 10 C-1.99 10.495 -1.99 10.495 -3 11 C-4.60355101 7.49223216 -5.22036864 4.85645121 -5 1 Z " fill="#252525" transform="translate(531,120)"/>
<path d="M0 0 C3.40312738 1.05875074 6.01353231 2.00902154 9 4 C9 4.66 9 5.32 9 6 C9.66 6.33 10.32 6.66 11 7 C10.34 7.66 9.68 8.32 9 9 C8.484375 8.401875 7.96875 7.80375 7.4375 7.1875 C4.43466313 4.4926464 1.75126391 3.44279381 -2 2 C-1.34 1.34 -0.68 0.68 0 0 Z " fill="#1D1D1D" transform="translate(871,119)"/>
<path d="M0 0 C3.21852831 0.63065757 5.50801069 1.78020695 8.25 3.5625 C8.95640625 4.01753906 9.6628125 4.47257812 10.390625 4.94140625 C11.18726563 5.46541016 11.18726563 5.46541016 12 6 C11.34 6.66 10.68 7.32 10 8 C6.7 6.35 3.4 4.7 0 3 C0 2.01 0 1.02 0 0 Z " fill="#272727" transform="translate(226,96)"/>
<path d="M0 0 C1.54627671 2.31941506 2.86182828 4.52979752 4.125 7 C4.47820312 7.680625 4.83140625 8.36125 5.1953125 9.0625 C6 11 6 11 6 14 C5.34 14 4.68 14 4 14 C3.13395466 12.23494565 2.28251358 10.46271926 1.4375 8.6875 C0.72400391 7.20830078 0.72400391 7.20830078 -0.00390625 5.69921875 C-1 3 -1 3 0 0 Z " fill="#222222" transform="translate(273,91)"/>
<path d="M0 0 C0 0.99 0 1.98 0 3 C-3.96 4.98 -7.92 6.96 -12 9 C-12.33 8.34 -12.66 7.68 -13 7 C-11.5839401 6.20724852 -10.16712447 5.41584688 -8.75 4.625 C-7.56664063 3.96371094 -7.56664063 3.96371094 -6.359375 3.2890625 C-4.26085803 2.14252177 -2.1463923 1.05350448 0 0 Z " fill="#1C1C1C" transform="translate(109,43)"/>
<path d="M0 0 C3.48330216 0.64505596 6.09432866 1.98217268 9 4 C9 4.66 9 5.32 9 6 C9.99 6.33 10.98 6.66 12 7 C10.1875 7.625 10.1875 7.625 8 8 C7.01 7.34 6.02 6.68 5 6 C5 5.34 5 4.68 5 4 C2.525 3.01 2.525 3.01 0 2 C0 1.34 0 0.68 0 0 Z " fill="#202020" transform="translate(230,43)"/>
<path d="M0 0 C0.66 0.33 1.32 0.66 2 1 C2.1875 3.375 2.1875 3.375 2 6 C-1.45214853 8.30143236 -2.23479324 8.13833854 -6.1875 7.625 C-7.53908203 7.45871094 -7.53908203 7.45871094 -8.91796875 7.2890625 C-9.94857422 7.14597656 -9.94857422 7.14597656 -11 7 C-11 6.67 -11 6.34 -11 6 C-9.01432292 5.77213542 -7.02864583 5.54427083 -5.04296875 5.31640625 C-2.80603607 5.02829265 -2.80603607 5.02829265 0 4 C0 2.68 0 1.36 0 0 Z " fill="#222222" transform="translate(757,187)"/>
<path d="M0 0 C2.475 0.495 2.475 0.495 5 1 C4.45276317 4.37462715 3.9451 6.08235 2 9 C0 3.375 0 3.375 0 0 Z " fill="#2D2D2D" transform="translate(721,182)"/>
<path d="M0 0 C0.33 0.99 0.66 1.98 1 3 C-1.64 5.64 -4.28 8.28 -7 11 C-7.99 10.67 -8.98 10.34 -10 10 C-6.7 6.7 -3.4 3.4 0 0 Z " fill="#171717" transform="translate(154,143)"/>
<path d="M0 0 C0.66 0.33 1.32 0.66 2 1 C1.67 2.32 1.34 3.64 1 5 C-2.9813783 6.3271261 -6.85045227 6.06915913 -11 6 C-7.73454239 4.11608215 -4.71888239 3.50712033 -1 3 C-0.67 2.01 -0.34 1.02 0 0 Z " fill="#2D2D2D" transform="translate(845,143)"/>
<path d="M0 0 C3.60781873 1.55631396 5.5868237 3.46836178 8.1875 6.375 C2.57075141 6.375 -0.49217539 3.73525247 -4.8125 0.375 C-2.8125 -0.625 -2.8125 -0.625 0 0 Z " fill="#1D1D1D" transform="translate(698.8125,119.625)"/>
<path d="M0 0 C-1.2065625 0.61875 -1.2065625 0.61875 -2.4375 1.25 C-5.14109718 2.73452331 -5.14109718 2.73452331 -5.8125 5.1875 C-5.9053125 6.0846875 -5.9053125 6.0846875 -6 7 C-6.99 6.67 -7.98 6.34 -9 6 C-8.8125 3.625 -8.8125 3.625 -8 1 C-4.72494404 -0.89608503 -3.64512471 -1.21504157 0 0 Z " fill="#121212" transform="translate(503,119)"/>
<path d="M0 0 C-2.12121657 2.33333823 -4.01594365 3.9148886 -7 5 C-9.25 4.625 -9.25 4.625 -11 4 C-7.64918101 0.31409911 -4.96535219 -1.77334007 0 0 Z " fill="#2A2A2A" transform="translate(208,97)"/>
<path d="M0 0 C1.1055189 0.93590504 2.20935453 1.87379858 3.3125 2.8125 C3.92738281 3.33457031 4.54226562 3.85664063 5.17578125 4.39453125 C6.85424679 5.87172469 8.43882034 7.40039131 10 9 C9.67 9.99 9.34 10.98 9 12 C5.7 8.7 2.4 5.4 -1 2 C-0.67 1.34 -0.34 0.68 0 0 Z " fill="#121212" transform="translate(61,231)"/>
<path d="M0 0 C-1.44253657 3.36591866 -3.33264727 5.51047079 -6 8 C-6.99 7.67 -7.98 7.34 -9 7 C-8.07347299 5.82460004 -7.13336613 4.65989423 -6.1875 3.5 C-5.66542969 2.8503125 -5.14335938 2.200625 -4.60546875 1.53125 C-3 0 -3 0 0 0 Z " fill="#131313" transform="translate(84,134)"/>
<path d="M0 0 C0.66 0.33 1.32 0.66 2 1 C0.50902342 4.7952131 -1.75700849 6.61042731 -5 9 C-5.33 8.01 -5.66 7.02 -6 6 C-4 4 -2 2 0 0 Z " fill="#1A1A1A" transform="translate(834,123)"/>
<path d="M0 0 C0.99 0.66 1.98 1.32 3 2 C2.875 4.25 2.875 4.25 2 7 C-1.0625 9.3125 -1.0625 9.3125 -4 11 C-3.42655063 8.13275314 -3.1385485 7.1385485 -1 5 C-0.35232207 2.42938689 -0.35232207 2.42938689 0 0 Z " fill="#252525" transform="translate(519,184)"/>
<path d="M0 0 C1.79570284 2.66125745 2.03345719 3.78111062 1.5390625 7.015625 C1.08660156 8.61664063 1.08660156 8.61664063 0.625 10.25 C0.32851563 11.32765625 0.03203125 12.4053125 -0.2734375 13.515625 C-0.51320312 14.33546875 -0.75296875 15.1553125 -1 16 C-1.33 16 -1.66 16 -2 16 C-2.2358396 10.22192976 -1.86783046 5.48675196 0 0 Z " fill="#252525" transform="translate(45,116)"/>
<path d="M0 0 C0.33 0.66 0.66 1.32 1 2 C-3.11378556 8.70459519 -3.11378556 8.70459519 -6.8125 9.9375 C-7.8953125 9.9684375 -7.8953125 9.9684375 -9 10 C-8.06409496 8.8944811 -7.12620142 7.79064547 -6.1875 6.6875 C-5.66542969 6.07261719 -5.14335937 5.45773438 -4.60546875 4.82421875 C-3.12827531 3.14575321 -1.59960869 1.56117966 0 0 Z " fill="#1D1D1D" transform="translate(152,61)"/>
<path d="M0 0 C0.66 0.33 1.32 0.66 2 1 C1.34 3.97 0.68 6.94 0 10 C-0.66 10 -1.32 10 -2 10 C-2 10.99 -2 11.98 -2 13 C-2.66 13 -3.32 13 -4 13 C-3.71517632 11.58194169 -3.42181856 10.16559621 -3.125 8.75 C-2.96257813 7.96109375 -2.80015625 7.1721875 -2.6328125 6.359375 C-2.00849925 4.03168856 -1.15161458 2.10968048 0 0 Z " fill="#383838" transform="translate(569,162)"/>
<path d="M0 0 C0 0.66 0 1.32 0 2 C-1.41377782 2.36552803 -2.83120576 2.71695495 -4.25 3.0625 C-5.03890625 3.25972656 -5.8278125 3.45695312 -6.640625 3.66015625 C-9.10394822 4.01497267 -10.65604132 3.76877544 -13 3 C-8.72352613 0.14901742 -5.0682068 -0.14480591 0 0 Z " fill="#1B1B1B" transform="translate(189,259)"/>
<path d="M0 0 C-1.38188453 3.21043882 -2.92421903 5.04936365 -5.625 7.25 C-6.57246094 8.03117188 -6.57246094 8.03117188 -7.5390625 8.828125 C-8.02117187 9.21484375 -8.50328125 9.6015625 -9 10 C-8.42110619 6.71245489 -7.45171589 5.06327505 -5.0625 2.75 C-4.53785156 2.22921875 -4.01320312 1.7084375 -3.47265625 1.171875 C-2 0 -2 0 0 0 Z " fill="#101010" transform="translate(152,247)"/>
<path d="M0 0 C0.66 0.66 1.32 1.32 2 2 C-0.64 4.64 -3.28 7.28 -6 10 C-6.66 9.34 -7.32 8.68 -8 8 C-5.36 5.36 -2.72 2.72 0 0 Z " fill="#121212" transform="translate(160,237)"/>
<path d="M0 0 C2.875 0.3125 2.875 0.3125 6 1 C6.66 1.99 7.32 2.98 8 4 C7.34 4.66 6.68 5.32 6 6 C5.34 5.34 4.68 4.68 4 4 C1.42938689 3.35232207 1.42938689 3.35232207 -1 3 C-0.67 2.01 -0.34 1.02 0 0 Z " fill="#2D2D2D" transform="translate(172,188)"/>
<path d="M0 0 C2.21399303 3.79541663 3.00980198 7.75629421 4 12 C3.01 12.495 3.01 12.495 2 13 C-0.44038726 8.11922548 -1.46845421 5.47332932 0 0 Z " fill="#1A1A1A" transform="translate(67,173)"/>
<path d="M0 0 C-1.55603771 3.81936528 -3.95604931 6.26044438 -7 9 C-7.66 9 -8.32 9 -9 9 C-7.45665977 5.21180126 -4.44676575 0 0 0 Z " fill="#121212" transform="translate(232,165)"/>
<path d="M0 0 C0.99 0.66 1.98 1.32 3 2 C2.67 2.99 2.34 3.98 2 5 C1.34 5 0.68 5 0 5 C0 6.32 0 7.64 0 9 C-1.98 9.99 -1.98 9.99 -4 11 C-2.95902388 7.13351728 -1.96301592 3.50538557 0 0 Z " fill="#212121" transform="translate(40,93)"/>
<path d="M0 0 C-1.33333333 0.66666667 -2.66666667 1.33333333 -4 2 C-4.66 2.391875 -5.32 2.78375 -6 3.1875 C-8.42863035 4.17413108 -9.57447091 3.86626039 -12 3 C-8.61613364 -0.38386636 -4.56431325 -1.75550509 0 0 Z " fill="#1B1B1B" transform="translate(123,40)"/>
<path d="M0 0 C3.96 0.33 7.92 0.66 12 1 C12 1.99 12 2.98 12 4 C9.03 3.67 6.06 3.34 3 3 C3 2.34 3 1.68 3 1 C2.01 0.67 1.02 0.34 0 0 Z " fill="#292929" transform="translate(133,273)"/>
<path d="M0 0 C2.9719385 1.12451727 5.33440687 2.22293791 8 4 C7.67 4.99 7.34 5.98 7 7 C4.36 5.35 1.72 3.7 -1 2 C-0.67 1.34 -0.34 0.68 0 0 Z " fill="#2B2B2B" transform="translate(82,251)"/>
<path d="M0 0 C0.33 0.99 0.66 1.98 1 3 C0.21625 3.28875 -0.5675 3.5775 -1.375 3.875 C-4.09671632 4.84912254 -4.09671632 4.84912254 -6 7 C-8.125 6.625 -8.125 6.625 -10 6 C-6.87567603 3.47650757 -3.61939504 1.72743854 0 0 Z " fill="#1C1C1C" transform="translate(133,225)"/>
<path d="M0 0 C0.845625 0.639375 1.69125 1.27875 2.5625 1.9375 C5.90728565 4.1966273 8.97396992 4.67791759 13 5 C13 5.33 13 5.66 13 6 C11.56465159 6.2226746 10.12654475 6.42761906 8.6875 6.625 C7.88699219 6.74101562 7.08648438 6.85703125 6.26171875 6.9765625 C4 7 4 7 1 5 C0.3125 2.375 0.3125 2.375 0 0 Z " fill="#1A1A1A" transform="translate(552,188)"/>
<path d="M0 0 C1.32 0.66 2.64 1.32 4 2 C3.01 2.495 3.01 2.495 2 3 C1.27306096 4.97888961 0.60183749 6.97954558 0 9 C-2 7 -2 7 -2.25 4.5 C-2 2 -2 2 0 0 Z " fill="#1F1F1F" transform="translate(449,119)"/>
<path d="M0 0 C0.66 0.66 1.32 1.32 2 2 C-2.82142857 7.22321429 -2.82142857 7.22321429 -7 8 C-6.02133662 6.85373678 -5.04205413 5.70800212 -4.0625 4.5625 C-3.51722656 3.92441406 -2.97195312 3.28632812 -2.41015625 2.62890625 C-1.63204305 1.73008851 -0.84063472 0.84063472 0 0 Z " fill="#202020" transform="translate(180,117)"/>
<path d="M0 0 C0.99 0.66 1.98 1.32 3 2 C-0.465 4.97 -0.465 4.97 -4 8 C-4.33 7.01 -4.66 6.02 -5 5 C-4.34 5 -3.68 5 -3 5 C-2.5359375 4.0409375 -2.5359375 4.0409375 -2.0625 3.0625 C-1 1 -1 1 0 0 Z " fill="#272727" transform="translate(175,221)"/>
<path d="M0 0 C2 3 2 3 2 6 C-1.13498292 7.85776765 -3.37471432 8.20140476 -7 8 C-5.68 7.67 -4.36 7.34 -3 7 C-3 6.01 -3 5.02 -3 4 C-2.01 4 -1.02 4 0 4 C0 2.68 0 1.36 0 0 Z " fill="#2A2A2A" transform="translate(630,187)"/>
<path d="M0 0 C0.99 0 1.98 0 3 0 C2.67 3.96 2.34 7.92 2 12 C-0.13586678 8.79619983 -0.23132175 7.98060033 -0.125 4.3125 C-0.10695313 3.50425781 -0.08890625 2.69601563 -0.0703125 1.86328125 C-0.04710937 1.24839844 -0.02390625 0.63351563 0 0 Z " fill="#464646" transform="translate(283,162)"/>
<path d="M0 0 C0.33 0 0.66 0 1 0 C1 2.97 1 5.94 1 9 C0.01 9.33 -0.98 9.66 -2 10 C-2 12.31 -2 14.62 -2 17 C-2.33 17 -2.66 17 -3 17 C-3.25 9.375 -3.25 9.375 -1 6 C-0.60986284 4.0103005 -0.26797351 2.00980131 0 0 Z " fill="#242424" transform="translate(31,125)"/>
<path d="M0 0 C0.33 0 0.66 0 1 0 C1.33 3.63 1.66 7.26 2 11 C1.01 11 0.02 11 -1 11 C-1.125 3.375 -1.125 3.375 0 0 Z " fill="#444444" transform="translate(284,120)"/>
<path d="M0 0 C1.32 0.66 2.64 1.32 4 2 C3.01 2.495 3.01 2.495 2 3 C1.67 3.66 1.34 4.32 1 5 C0 7 0 7 -2 8 C-2.125 5.125 -2.125 5.125 -2 2 C-1.34 1.34 -0.68 0.68 0 0 Z " fill="#383838" transform="translate(612,119)"/>
<path d="M0 0 C2.39829117 0.54019762 4.65807395 1.23528945 7 2 C5.25 3.125 5.25 3.125 3 4 C2.3915625 3.690625 1.783125 3.38125 1.15625 3.0625 C-1.35056826 1.82725622 -2.97735853 1.79345172 -5.75 1.875 C-6.94882812 1.90207031 -6.94882812 1.90207031 -8.171875 1.9296875 C-9.07679688 1.96449219 -9.07679688 1.96449219 -10 2 C-6.25405125 -0.49729916 -4.44844343 -0.2965629 0 0 Z " fill="#555555" transform="translate(784,117)"/>
<path d="M0 0 C5.78461538 3.44615385 5.78461538 3.44615385 6.875 6.25 C6.936875 7.11625 6.936875 7.11625 7 8 C3.2047869 6.50902342 1.38957269 4.24299151 -1 1 C-0.67 0.67 -0.34 0.34 0 0 Z " fill="#212121" transform="translate(244,74)"/>
<path d="M0 0 C2.5 1.8125 2.5 1.8125 5 4 C5 4.99 5 5.98 5 7 C4.01 6.67 3.02 6.34 2 6 C2 5.34 2 4.68 2 4 C-0.475 3.01 -0.475 3.01 -3 2 C-2.01 1.34 -1.02 0.68 0 0 Z " fill="#323232" transform="translate(748,119)"/>
<path d="M0 0 C0.33 0.66 0.66 1.32 1 2 C0.22265625 3.7265625 0.22265625 3.7265625 -0.9375 5.625 C-1.618125 6.73875 -2.29875 7.8525 -3 9 C-3.99 9 -4.98 9 -6 9 C-6 8.34 -6 7.68 -6 7 C-5.34 7 -4.68 7 -4 7 C-3.71125 6.401875 -3.4225 5.80375 -3.125 5.1875 C-2 3 -2 3 0 0 Z " fill="#252525" transform="translate(60,63)"/>
<path d="M0 0 C0.99 0 1.98 0 3 0 C3 0.66 3 1.32 3 2 C5.31 2.66 7.62 3.32 10 4 C8.3125 5.1875 8.3125 5.1875 6 6 C3.3125 4.8125 3.3125 4.8125 1 3 C0.67 2.01 0.34 1.02 0 0 Z " fill="#1A1A1A" transform="translate(827,142)"/>
<path d="M0 0 C0.66 0.33 1.32 0.66 2 1 C1.01 3.97 0.02 6.94 -1 10 C-1.66 8.68 -2.32 7.36 -3 6 C-1.625 2.75 -1.625 2.75 0 0 Z " fill="#232323" transform="translate(51,101)"/>
<path d="M0 0 C2.475 0.99 2.475 0.99 5 2 C4.67 3.32 4.34 4.64 4 6 C1 5 1 5 -0.1875 2.9375 C-0.5896875 1.9784375 -0.5896875 1.9784375 -1 1 C-0.67 0.67 -0.34 0.34 0 0 Z " fill="#1B1B1B" transform="translate(421,89)"/>
<path d="M0 0 C4.39158329 1.4638611 4.87947433 3.97831338 7 8 C6.01 8.33 5.02 8.66 4 9 C0 2.25 0 2.25 0 0 Z " fill="#222222" transform="translate(261,73)"/>
<path d="M0 0 C0.99 0.33 1.98 0.66 3 1 C0.75 3.5625 0.75 3.5625 -2 6 C-4.3125 5.8125 -4.3125 5.8125 -6 5 C-5.01 4.67 -4.02 4.34 -3 4 C-3 3.34 -3 2.68 -3 2 C-2.01 1.34 -1.02 0.68 0 0 Z " fill="#1C1C1C" transform="translate(82,43)"/>
<path d="M0 0 C2.97 0.99 5.94 1.98 9 3 C8.34 3.66 7.68 4.32 7 5 C4.5 4.875 4.5 4.875 2 4 C1.34 2.68 0.68 1.36 0 0 Z " fill="#272727" transform="translate(82,197)"/>
<path d="M0 0 C1.32 0.33 2.64 0.66 4 1 C4 1.66 4 2.32 4 3 C5.65 3.33 7.3 3.66 9 4 C7.02 4.99 7.02 4.99 5 6 C3.31237149 4.3545622 1.6459651 2.68711423 0 1 C0 0.67 0 0.34 0 0 Z " fill="#202020" transform="translate(500,188)"/>
<path d="M0 0 C1.32 0.33 2.64 0.66 4 1 C3.67 2.98 3.34 4.96 3 7 C1.5 5.75 1.5 5.75 0 4 C0 2.68 0 1.36 0 0 Z " fill="#373737" transform="translate(432,182)"/>
<path d="M0 0 C1.8871875 0.061875 1.8871875 0.061875 3.8125 0.125 C3.4825 1.115 3.1525 2.105 2.8125 3.125 C-0.4875 2.795 -3.7875 2.465 -7.1875 2.125 C-4.09861478 0.06574319 -3.47814073 -0.1140374 0 0 Z " fill="#313131" transform="translate(389.1875,179.875)"/>
<path d="M0 0 C0.66 0.99 1.32 1.98 2 3 C1.125 6.6875 1.125 6.6875 0 10 C-0.66 9.67 -1.32 9.34 -2 9 C-1.34 6.03 -0.68 3.06 0 0 Z " fill="#1C1C1C" transform="translate(247,139)"/>
<path d="M0 0 C0.99 0 1.98 0 3 0 C2.67 1.32 2.34 2.64 2 4 C1.34 4 0.68 4 0 4 C-0.33 5.65 -0.66 7.3 -1 9 C-2.60031344 5.79937313 -1.03173691 3.27728194 0 0 Z " fill="#2F2F2F" transform="translate(582,120)"/>
<path d="M0 0 C-1.49097658 3.7952131 -3.75700849 5.61042731 -7 8 C-6.44414399 4.1090079 -4.34122117 0 0 0 Z " fill="#2A2A2A" transform="translate(120,114)"/>
<path d="M0 0 C0.598125 0.20625 1.19625 0.4125 1.8125 0.625 C-1.9375 3.625 -1.9375 3.625 -4.1875 3.625 C-4.1875 4.285 -4.1875 4.945 -4.1875 5.625 C-4.8475 5.625 -5.5075 5.625 -6.1875 5.625 C-5.875 3.75 -5.875 3.75 -5.1875 1.625 C-2.1875 -0.375 -2.1875 -0.375 0 0 Z " fill="#242424" transform="translate(94.1875,52.375)"/>
<path d="M0 0 C0.33 0.66 0.66 1.32 1 2 C1.66 2 2.32 2 3 2 C3 2.66 3 3.32 3 4 C3.99 4.33 4.98 4.66 6 5 C5.34 5.66 4.68 6.32 4 7 C2.35 5.68 0.7 4.36 -1 3 C-0.67 2.01 -0.34 1.02 0 0 Z " fill="#191919" transform="translate(410,187)"/>
<path d="M0 0 C2 2 2 2 2.375 4.4375 C2 7 2 7 -2 10 C-1.34 6.7 -0.68 3.4 0 0 Z " fill="#262626" transform="translate(32,114)"/>
<path d="M0 0 C1.9375 0.6875 1.9375 0.6875 4 2 C4.75 4.625 4.75 4.625 5 7 C4.01 7.495 4.01 7.495 3 8 C0 2.25 0 2.25 0 0 Z " fill="#181818" transform="translate(259,95)"/>
<path d="M0 0 C0.66 0.66 1.32 1.32 2 2 C-0.97 4.475 -0.97 4.475 -4 7 C-4 4 -4 4 -2 1.8125 C-1.34 1.214375 -0.68 0.61625 0 0 Z " fill="#141414" transform="translate(175,76)"/>
<path d="M0 0 C0.33 0.99 0.66 1.98 1 3 C-0.32 4.32 -1.64 5.64 -3 7 C-3.99 6.67 -4.98 6.34 -6 6 C-4 4 -2 2 0 0 Z " fill="#121212" transform="translate(140,219)"/>
<path d="M0 0 C0.33 0.99 0.66 1.98 1 3 C-0.32 4.32 -1.64 5.64 -3 7 C-3.99 6.67 -4.98 6.34 -6 6 C-4.02 4.02 -2.04 2.04 0 0 Z " fill="#1C1C1C" transform="translate(191,188)"/>
<path d="M0 0 C0.99 0.33 1.98 0.66 3 1 C1.6875 2.5 1.6875 2.5 0 4 C-0.99 4 -1.98 4 -3 4 C-3.33 4.66 -3.66 5.32 -4 6 C-4 5.01 -4 4.02 -4 3 C-2.1875 1.25 -2.1875 1.25 0 0 Z " fill="#1F1F1F" transform="translate(833,160)"/>
<path d="M0 0 C0.99 0.33 1.98 0.66 3 1 C1.68 3.31 0.36 5.62 -1 8 C-1.66 7.01 -2.32 6.02 -3 5 C-2.34 5 -1.68 5 -1 5 C-0.67 3.35 -0.34 1.7 0 0 Z " fill="#212121" transform="translate(243,149)"/>
<path d="M0 0 C4.75 1.875 4.75 1.875 7 3 C6.67 4.32 6.34 5.64 6 7 C4.02 4.69 2.04 2.38 0 0 Z " fill="#202020" transform="translate(181,146)"/>
<path d="M0 0 C4.875 0.875 4.875 0.875 6 2 C6.04080783 3.99958364 6.04254356 6.00045254 6 8 C4 5.33333333 2 2.66666667 0 0 Z " fill="#151515" transform="translate(623,93)"/>
<path d="M0 0 C2.5 1.3125 2.5 1.3125 5 3 C5 3.99 5 4.98 5 6 C3 5 1 4 -1 3 C-0.67 2.01 -0.34 1.02 0 0 Z " fill="#1F1F1F" transform="translate(76,192)"/>
<path d="M0 0 C0.66 0.99 1.32 1.98 2 3 C2.99387334 4.33790641 3.9926892 5.67218122 5 7 C3.35 6.67 1.7 6.34 0 6 C-1.125 2.25 -1.125 2.25 0 0 Z " fill="#1F1F1F" transform="translate(338,185)"/>
<path d="M0 0 C4.875 2.625 4.875 2.625 6 6 C1.25 4.125 1.25 4.125 -1 3 C-0.67 2.01 -0.34 1.02 0 0 Z " fill="#282828" transform="translate(458,189)"/>
<path d="M0 0 C0.66 0.33 1.32 0.66 2 1 C1.67 2.98 1.34 4.96 1 7 C0.01 7.33 -0.98 7.66 -2 8 C-1.34 5.36 -0.68 2.72 0 0 Z " fill="#323232" transform="translate(67,153)"/>
<path d="M0 0 C1.41377341 2.63904371 2.37240135 5.07120629 3 8 C2.01 8.495 2.01 8.495 1 9 C1 8.34 1 7.68 1 7 C0.34 6.67 -0.32 6.34 -1 6 C-0.67 4.02 -0.34 2.04 0 0 Z " fill="#434343" transform="translate(247,114)"/>
<path d="M0 0 C0.66 0.66 1.32 1.32 2 2 C-0.97 4.475 -0.97 4.475 -4 7 C-4 4 -4 4 -2 1.8125 C-1.34 1.214375 -0.68 0.61625 0 0 Z " fill="#0E0E0E" transform="translate(189,41)"/>
</svg>
